<?xml version="1.0" standalone="no"?>
<!DOCTYPE svg PUBLIC "-//W3C//DTD SVG 20010904//EN"
 "http://www.w3.org/TR/2001/REC-SVG-20010904/DTD/svg10.dtd">
<svg version="1.0" xmlns="http://www.w3.org/2000/svg"
 width="1824.000000pt" height="452.000000pt" viewBox="0 0 1824.000000 452.000000"
 preserveAspectRatio="xMidYMid meet">

<g transform="translate(0.000000,452.000000) scale(0.100000,-0.100000)"
fill="#ffffff" stroke="none">
<path d="M14493 4406 l-333 -111 -2 -1010 c-2 -555 -2 -1322 0 -1702 l3 -693
334 0 335 0 0 708 c0 760 0 754 53 857 101 198 340 294 557 226 124 -39 240
-147 291 -269 l24 -57 5 -730 5 -730 338 -3 337 -2 0 703 c0 422 -4 735 -10
785 -21 166 -96 363 -191 503 -142 210 -382 384 -621 453 -237 68 -517 57
-728 -28 l-60 -25 -2 618 -3 618 -332 -111z"/>
<path d="M6792 4363 c-16 -21 -127 -171 -247 -333 l-217 -295 757 -3 c416 -1
755 -6 753 -10 -3 -7 -1387 -2072 -1505 -2245 l-53 -79 2 -251 3 -252 1049 0
1050 0 243 330 244 330 -820 5 -819 5 789 1157 789 1157 0 261 0 260 -994 0
-994 0 -30 -37z"/>
<path d="M3930 4139 c-14 -6 -172 -94 -352 -196 -264 -150 -329 -192 -343
-217 -15 -28 -16 -152 -13 -1404 l3 -1374 27 -23 c14 -12 173 -106 352 -209
226 -129 335 -186 356 -186 46 0 696 365 721 405 18 29 19 78 19 1402 l0 1373
-27 30 c-16 16 -158 105 -318 196 -389 223 -382 220 -425 203z m96 -254 c17
-13 11 -14 -66 -14 -77 0 -83 1 -66 14 11 8 41 15 66 15 25 0 55 -7 66 -15z
m160 -90 c17 -13 -8 -14 -226 -14 -218 0 -243 1 -226 14 16 12 60 15 226 15
166 0 210 -3 226 -15z m170 -100 c17 -13 -29 -14 -396 -14 -367 0 -413 1 -396
14 29 22 763 22 792 0z m-100 -90 c-16 -12 -69 -15 -296 -15 -227 0 -280 3
-296 15 -17 13 17 14 296 14 279 0 313 -1 296 -14z m-170 -100 c-28 -21 -224
-21 -252 0 -17 13 -4 14 126 14 130 0 143 -1 126 -14z m-435 -137 l209 -122 0
-1218 0 -1219 -22 12 c-13 6 -110 61 -215 121 l-193 110 0 1219 c0 671 3 1219
6 1219 3 0 100 -55 215 -122z m829 90 c0 -13 3 -34 7 -47 5 -21 4 -22 -15 -12
-29 15 -52 14 -74 -6 -22 -20 -23 -51 -1 -75 20 -22 51 -23 73 -3 15 14 16 10
16 -50 -1 -40 -5 -60 -10 -54 -28 27 -96 -4 -96 -44 0 -47 56 -73 90 -42 15
14 16 10 16 -50 -1 -40 -5 -60 -11 -54 -14 14 -57 11 -77 -8 -25 -22 -23 -59
4 -77 28 -20 47 -20 68 -1 15 14 16 10 16 -50 -1 -40 -5 -60 -11 -54 -14 14
-62 11 -79 -7 -23 -22 -20 -60 6 -78 28 -20 47 -20 68 -1 15 14 16 10 16 -50
-1 -40 -5 -60 -10 -54 -15 14 -63 11 -80 -7 -22 -21 -20 -50 4 -74 24 -24 47
-25 70 -5 15 14 16 10 16 -50 -1 -40 -5 -60 -10 -54 -15 14 -63 11 -80 -7 -22
-21 -20 -50 4 -74 24 -24 47 -26 69 -6 14 13 16 8 16 -49 0 -40 -4 -61 -9 -55
-19 19 -75 11 -86 -11 -28 -51 26 -107 72 -77 l23 15 0 -62 c0 -61 0 -61 -23
-49 -29 15 -59 7 -73 -18 -27 -50 27 -106 73 -76 l23 15 0 -62 c0 -61 0 -61
-23 -49 -29 15 -59 7 -73 -18 -27 -50 27 -106 73 -76 l23 15 0 -62 c0 -61 0
-62 -21 -48 -46 30 -101 -26 -75 -75 15 -28 47 -37 74 -19 22 14 22 14 22 -48
0 -61 0 -62 -21 -48 -46 30 -101 -26 -75 -75 15 -28 47 -37 74 -19 22 14 22
14 22 -48 0 -62 0 -62 -22 -48 -27 18 -59 9 -74 -19 -26 -49 29 -105 75 -75
21 14 21 13 21 -48 0 -62 0 -62 -22 -48 -27 18 -59 9 -74 -19 -16 -30 -2 -67
29 -79 l27 -11 -23 -11 c-19 -9 -25 -7 -38 12 -35 50 -116 3 -94 -54 11 -29 4
-36 -25 -23 -31 14 -64 -5 -71 -42 -4 -20 -16 -32 -38 -41 -17 -7 -44 -21 -59
-32 -37 -25 -50 -11 -14 15 36 26 37 71 2 94 -18 12 -25 25 -25 49 0 24 7 37
25 49 17 11 25 26 25 46 0 20 -8 35 -25 46 -18 12 -25 25 -25 49 0 24 7 37 25
49 17 11 25 26 25 46 0 20 -8 35 -25 46 -18 12 -25 25 -25 49 0 24 7 37 25 49
17 11 25 26 25 46 0 20 -8 35 -25 46 -18 12 -25 25 -25 49 0 24 7 37 25 49 17
11 25 26 25 46 0 20 -8 35 -25 46 -18 12 -25 25 -25 49 0 24 7 37 25 49 17 11
25 26 25 46 0 20 -8 35 -25 46 -35 23 -35 75 1 98 33 22 31 76 -3 91 -34 15
-32 77 3 99 33 22 31 76 -3 91 -34 15 -32 77 2 99 14 9 25 26 25 37 0 29 -18
59 -35 59 -27 0 -19 69 10 92 14 11 25 28 25 39 0 29 -18 59 -35 59 -27 0 -19
69 10 92 14 11 25 30 25 43 0 24 -23 55 -41 55 -5 0 -9 18 -9 39 0 31 5 41 19
46 39 12 39 88 1 100 -29 9 -29 81 0 90 38 12 38 88 -1 100 -10 4 -19 12 -19
20 0 25 25 22 52 -7 31 -34 37 -34 72 -7 30 24 33 45 9 71 -21 24 -9 35 21 18
36 -19 74 -6 82 28 10 48 13 52 33 52 11 0 35 13 53 28 39 33 80 61 91 61 4 1
7 -9 7 -21z"/>
<path d="M4301 3294 c-44 -56 34 -119 82 -66 22 25 21 48 -3 72 -27 27 -55 25
-79 -6z"/>
<path d="M4207 3202 c-33 -36 -8 -92 40 -92 42 0 71 68 41 98 -18 18 -63 14
-81 -6z"/>
<path d="M4117 3112 c-20 -22 -22 -63 -5 -80 30 -30 98 -1 98 41 0 23 -35 57
-58 57 -11 0 -26 -8 -35 -18z"/>
<path d="M4301 3104 c-19 -25 -19 -45 2 -71 16 -21 64 -15 81 9 21 30 20 44
-4 68 -27 27 -55 25 -79 -6z"/>
<path d="M4206 3014 c-34 -33 -5 -94 45 -94 38 0 65 70 37 98 -17 17 -64 15
-82 -4z"/>
<path d="M4117 2922 c-20 -22 -22 -63 -5 -80 30 -30 98 -1 98 41 0 23 -35 57
-58 57 -11 0 -26 -8 -35 -18z"/>
<path d="M4301 2914 c-19 -25 -19 -45 2 -71 16 -21 64 -15 81 9 21 30 20 44
-4 68 -27 27 -55 25 -79 -6z"/>
<path d="M4206 2824 c-34 -33 -5 -94 45 -94 38 0 65 70 37 98 -17 17 -64 15
-82 -4z"/>
<path d="M4116 2734 c-19 -18 -21 -65 -4 -82 18 -18 63 -14 81 6 22 25 21 48
-3 72 -24 24 -53 26 -74 4z"/>
<path d="M4314 2742 c-6 -4 -16 -16 -22 -28 -28 -54 57 -103 92 -52 21 30 20
44 -4 68 -21 21 -47 25 -66 12z"/>
<path d="M4206 2634 c-34 -33 -5 -94 45 -94 38 0 65 70 37 98 -17 17 -64 15
-82 -4z"/>
<path d="M4116 2544 c-19 -18 -21 -65 -4 -82 18 -18 63 -14 81 6 22 25 21 48
-3 72 -24 24 -53 26 -74 4z"/>
<path d="M4314 2552 c-6 -4 -16 -16 -22 -28 -28 -54 57 -103 92 -52 21 30 20
44 -4 68 -21 21 -47 25 -66 12z"/>
<path d="M4205 2444 c-23 -24 -15 -66 16 -83 24 -13 29 -13 53 2 28 19 36 63
14 85 -17 17 -64 15 -83 -4z"/>
<path d="M4116 2354 c-19 -18 -21 -65 -4 -82 18 -18 63 -14 81 6 22 25 21 48
-3 72 -24 24 -53 26 -74 4z"/>
<path d="M4306 2357 c-21 -16 -24 -60 -6 -82 19 -23 66 -19 84 7 21 30 20 44
-4 68 -23 23 -49 26 -74 7z"/>
<path d="M4223 2269 c-44 -16 -38 -90 7 -104 32 -10 70 20 70 54 0 42 -36 65
-77 50z"/>
<path d="M4116 2164 c-19 -18 -21 -65 -4 -82 18 -18 63 -14 81 6 22 25 21 48
-3 72 -24 24 -53 26 -74 4z"/>
<path d="M4314 2172 c-6 -4 -16 -16 -22 -28 -28 -54 57 -103 92 -52 21 30 20
44 -4 68 -21 21 -47 25 -66 12z"/>
<path d="M4223 2079 c-44 -16 -38 -90 7 -104 32 -10 70 20 70 54 0 42 -36 65
-77 50z"/>
<path d="M4116 1975 c-19 -19 -21 -66 -4 -83 22 -22 66 -14 85 14 15 24 15 29
2 53 -17 31 -59 39 -83 16z"/>
<path d="M4314 1982 c-6 -4 -16 -16 -22 -28 -28 -54 57 -103 92 -52 21 30 20
44 -4 68 -21 21 -47 25 -66 12z"/>
<path d="M4223 1889 c-44 -16 -38 -90 7 -104 32 -10 70 20 70 54 0 42 -36 65
-77 50z"/>
<path d="M4118 1789 c-26 -15 -24 -75 3 -89 30 -17 62 -8 78 21 13 24 13 29
-2 53 -18 27 -49 33 -79 15z"/>
<path d="M4306 1787 c-21 -15 -25 -60 -6 -82 20 -25 67 -19 87 11 15 24 15 29
2 53 -17 30 -55 38 -83 18z"/>
<path d="M4223 1700 c-44 -18 -38 -91 7 -105 56 -18 96 66 48 99 -25 18 -25
18 -55 6z"/>
<path d="M4118 1599 c-26 -15 -24 -75 3 -89 30 -17 62 -8 78 21 13 24 13 29
-2 53 -18 27 -49 33 -79 15z"/>
<path d="M4306 1597 c-11 -8 -18 -26 -18 -42 0 -57 73 -74 101 -24 29 53 -34
102 -83 66z"/>
<path d="M4223 1510 c-44 -18 -38 -91 7 -105 56 -18 96 66 48 99 -25 18 -25
18 -55 6z"/>
<path d="M4118 1409 c-26 -15 -24 -75 3 -89 30 -17 62 -8 78 21 13 24 13 29
-2 53 -18 27 -49 33 -79 15z"/>
<path d="M4306 1407 c-11 -8 -18 -26 -18 -42 0 -57 73 -74 101 -24 29 53 -34
102 -83 66z"/>
<path d="M4210 1310 c-11 -11 -20 -29 -20 -40 0 -22 33 -60 53 -60 27 0 57 31
57 60 0 18 -8 34 -22 44 -30 21 -44 20 -68 -4z"/>
<path d="M4112 1218 c-7 -7 -12 -27 -12 -45 0 -57 71 -73 99 -22 13 24 13 29
-2 53 -19 28 -63 36 -85 14z"/>
<path d="M4306 1217 c-11 -8 -18 -26 -18 -42 0 -57 73 -74 101 -24 29 53 -34
102 -83 66z"/>
<path d="M4210 1120 c-32 -32 -24 -75 18 -91 58 -22 101 60 50 95 -30 21 -44
20 -68 -4z"/>
<path d="M4112 1028 c-7 -7 -12 -27 -12 -45 0 -57 71 -73 99 -22 13 24 13 29
-2 53 -19 28 -63 36 -85 14z"/>
<path d="M18033 3449 c-546 -79 -1017 -468 -1188 -982 -71 -213 -68 -183 -72
-914 l-4 -663 335 0 335 0 3 618 4 617 27 90 c100 323 356 532 700 570 l57 6
0 335 0 334 -67 -1 c-38 -1 -96 -5 -130 -10z"/>
<path d="M12475 3409 c-152 -22 -309 -77 -451 -159 -321 -184 -526 -467 -621
-855 -15 -63 -17 -174 -20 -1120 l-4 -1050 336 -112 335 -111 0 499 c0 294 4
499 9 499 5 0 45 -16 90 -34 227 -98 495 -131 727 -91 534 93 957 514 1049
1042 20 112 19 336 0 449 -93 529 -532 959 -1062 1039 -106 16 -292 18 -388 4z
m344 -685 c217 -61 390 -246 437 -465 64 -298 -122 -607 -421 -702 -91 -29
-253 -30 -335 -3 -213 70 -372 231 -425 432 -19 71 -22 214 -5 286 44 196 202
370 400 442 101 37 239 41 349 10z"/>
<path d="M8714 3383 c3 -10 228 -521 500 -1135 l495 -1118 -225 -556 c-123
-307 -224 -561 -224 -566 0 -4 160 -7 356 -6 l355 3 675 1675 c371 921 677
1685 680 1698 l6 22 -358 -2 -359 -3 -279 -702 c-154 -387 -282 -703 -285
-703 -4 0 -141 317 -305 705 l-299 705 -369 0 c-347 0 -369 -1 -364 -17z"/>
<path d="M1984 3017 c-292 -167 -341 -198 -356 -228 -17 -32 -18 -96 -18 -917
0 -733 2 -888 14 -916 12 -30 53 -56 358 -230 228 -130 353 -196 372 -196 41
0 683 366 717 408 18 24 19 51 19 933 0 710 -3 914 -12 930 -20 32 -687 409
-724 409 -22 0 -132 -58 -370 -193z m436 -62 c23 -13 18 -14 -65 -14 -83 0
-88 1 -65 14 14 8 43 14 65 14 22 0 51 -6 65 -14z m170 -100 c11 -13 -16 -15
-235 -15 -219 0 -246 2 -235 15 19 22 451 22 470 0z m160 -90 c22 -13 -26 -14
-394 -15 -371 0 -418 2 -400 15 28 21 756 21 794 0z m-100 -95 c-9 -6 -131
-10 -295 -10 -164 0 -286 4 -295 10 -10 6 91 10 295 10 204 0 305 -4 295 -10z
m-166 -95 c-27 -21 -232 -21 -260 0 -17 13 -3 14 130 15 134 0 148 -2 130 -15z
m-442 -132 l207 -118 1 -758 0 -759 -32 19 c-18 10 -115 66 -215 123 l-183
104 0 753 c0 414 3 753 7 753 4 0 100 -53 215 -117z m848 63 c0 -35 -5 -58
-15 -66 -19 -16 -19 -41 0 -66 20 -26 19 -96 -2 -132 -16 -28 -16 -31 0 -55
22 -34 22 -91 0 -128 -17 -28 -17 -31 0 -60 9 -17 17 -46 17 -66 0 -19 -8 -48
-17 -64 -17 -28 -17 -31 0 -60 9 -17 17 -46 17 -66 0 -19 -8 -48 -17 -64 -17
-28 -17 -31 0 -60 9 -17 17 -46 17 -64 0 -18 -8 -47 -17 -64 -17 -29 -17 -32
0 -60 9 -16 17 -45 17 -64 0 -20 -8 -49 -17 -66 -17 -29 -17 -32 0 -60 21 -37
22 -94 1 -126 -10 -16 -14 -34 -10 -50 6 -23 4 -25 -28 -25 -33 0 -66 -21 -66
-41 0 -9 -32 -30 -123 -82 l-47 -28 -12 26 c-13 30 -48 41 -76 26 -29 -15 -37
-48 -18 -75 18 -28 11 -39 -15 -25 -27 14 -26 80 1 104 11 10 20 28 20 40 0
12 -9 30 -20 40 -13 12 -20 31 -20 55 0 24 7 43 20 55 11 10 20 28 20 40 0 12
-9 30 -20 40 -13 12 -20 31 -20 54 0 24 7 42 20 54 11 9 20 27 20 40 0 13 -9
32 -20 42 -13 12 -20 31 -20 54 0 24 7 42 20 54 11 9 20 27 20 40 0 13 -9 32
-20 42 -13 12 -20 31 -20 54 0 24 7 42 20 54 26 22 26 59 0 82 -13 12 -20 31
-20 54 0 24 7 42 20 54 11 9 20 27 20 40 0 13 -9 32 -20 42 -13 12 -20 31 -20
54 0 24 7 42 20 54 11 9 20 27 20 40 0 13 -9 32 -20 42 -12 11 -20 31 -20 52
0 20 8 41 20 53 11 11 20 33 20 50 0 27 3 30 30 30 28 0 70 29 70 48 0 7 36
28 83 50 5 3 4 -6 -3 -18 -16 -30 1 -67 35 -76 27 -7 49 6 66 38 14 27 -13 66
-48 70 l-27 3 28 14 c24 14 28 13 42 -7 18 -26 65 -29 88 -6 18 17 21 60 6 69
-12 7 -4 25 11 25 5 0 9 -24 9 -54z"/>
<path d="M2597 2352 c-34 -37 -11 -92 38 -92 50 0 73 60 37 93 -24 22 -55 21
-75 -1z"/>
<path d="M2787 2352 c-34 -37 -11 -92 38 -92 50 0 73 60 37 93 -24 22 -55 21
-75 -1z"/>
<path d="M2503 2254 c-27 -27 -25 -58 5 -82 24 -18 52 -11 75 20 19 25 19 29
4 51 -24 36 -55 40 -84 11z"/>
<path d="M2684 2245 c-21 -33 -6 -71 31 -81 47 -12 87 42 60 82 -22 33 -69 33
-91 -1z"/>
<path d="M2597 2162 c-34 -37 -11 -92 38 -92 50 0 73 60 37 93 -24 22 -55 21
-75 -1z"/>
<path d="M2787 2162 c-33 -37 -11 -92 37 -92 48 0 73 62 38 93 -24 22 -55 21
-75 -1z"/>
<path d="M2505 2068 c-30 -24 -32 -47 -4 -77 26 -28 56 -24 82 11 19 25 19 29
4 51 -22 34 -52 39 -82 15z"/>
<path d="M2694 2065 c-27 -27 -26 -59 4 -82 25 -20 49 -15 71 13 27 34 26 40
-4 69 -30 31 -40 31 -71 0z"/>
<path d="M2597 1972 c-34 -37 -11 -92 38 -92 50 0 73 60 37 93 -24 22 -55 21
-75 -1z"/>
<path d="M2787 1972 c-33 -37 -11 -92 37 -92 48 0 73 62 38 93 -24 22 -55 21
-75 -1z"/>
<path d="M2505 1875 c-14 -13 -25 -29 -25 -35 0 -6 11 -22 25 -35 13 -14 29
-25 35 -25 6 0 22 11 35 25 14 13 25 29 25 35 0 6 -11 22 -25 35 -13 14 -29
25 -35 25 -6 0 -22 -11 -35 -25z"/>
<path d="M2695 1875 c-14 -13 -25 -29 -25 -35 0 -14 46 -60 60 -60 14 0 60 46
60 60 0 14 -46 60 -60 60 -6 0 -22 -11 -35 -25z"/>
<path d="M2597 1782 c-33 -37 -11 -92 37 -92 48 0 73 62 38 93 -24 22 -55 21
-75 -1z"/>
<path d="M2787 1782 c-33 -37 -11 -92 37 -92 48 0 73 62 38 93 -24 22 -55 21
-75 -1z"/>
<path d="M2506 1689 c-32 -25 -33 -49 -3 -77 31 -29 51 -28 76 4 27 34 26 40
-4 69 -29 30 -35 31 -69 4z"/>
<path d="M2695 1685 c-14 -13 -25 -29 -25 -35 0 -14 46 -60 60 -60 14 0 60 46
60 60 0 14 -46 60 -60 60 -6 0 -22 -11 -35 -25z"/>
<path d="M2597 1592 c-33 -36 -8 -92 40 -92 25 0 53 30 53 57 0 46 -62 69 -93
35z"/>
<path d="M2787 1592 c-33 -37 -11 -92 37 -92 48 0 73 62 38 93 -24 22 -55 21
-75 -1z"/>
<path d="M2505 1495 c-14 -13 -25 -29 -25 -35 0 -6 11 -22 25 -35 13 -14 29
-25 35 -25 6 0 22 11 35 25 14 13 25 29 25 35 0 6 -11 22 -25 35 -13 14 -29
25 -35 25 -6 0 -22 -11 -35 -25z"/>
<path d="M2695 1495 c-14 -13 -25 -29 -25 -35 0 -14 46 -60 60 -60 14 0 60 46
60 60 0 14 -46 60 -60 60 -6 0 -22 -11 -35 -25z"/>
<path d="M2596 1404 c-33 -33 -7 -94 41 -94 25 0 53 30 53 57 0 44 -63 69 -94
37z"/>
<path d="M2786 1404 c-34 -33 -9 -94 38 -94 28 0 56 29 56 57 0 44 -63 69 -94
37z"/>
<path d="M2506 1309 c-14 -11 -26 -27 -26 -35 0 -17 44 -64 60 -64 6 0 22 11
35 25 14 13 25 29 25 35 0 13 -45 60 -58 60 -5 0 -21 -9 -36 -21z"/>
<path d="M2695 1305 c-14 -13 -25 -29 -25 -35 0 -14 46 -60 60 -60 14 0 60 46
60 60 0 14 -46 60 -60 60 -6 0 -22 -11 -35 -25z"/>
<path d="M2596 1214 c-33 -33 -7 -94 41 -94 25 0 53 30 53 57 0 44 -63 69 -94
37z"/>
<path d="M2786 1214 c-33 -33 -7 -94 41 -94 25 0 53 30 53 57 0 44 -63 69 -94
37z"/>
<path d="M2500 1120 c-11 -11 -20 -27 -20 -35 0 -18 44 -65 60 -65 6 0 22 11
35 25 14 13 25 29 25 35 0 16 -47 60 -65 60 -8 0 -24 -9 -35 -20z"/>
<path d="M2690 1120 c-11 -11 -20 -27 -20 -35 0 -18 44 -65 60 -65 13 0 60 45
60 58 0 19 -42 62 -61 62 -10 0 -28 -9 -39 -20z"/>
<path d="M2596 1024 c-33 -33 -7 -94 41 -94 25 0 53 30 53 57 0 44 -63 69 -94
37z"/>
<path d="M390 2004 c-179 -102 -337 -199 -352 -215 l-28 -29 0 -400 0 -400 28
-29 c40 -42 675 -401 709 -401 26 0 157 71 602 326 66 37 111 70 122 89 18 28
19 57 19 415 0 357 -1 387 -19 415 -26 43 -675 415 -723 415 -24 0 -122 -51
-358 -186z m424 -69 c18 -14 12 -15 -65 -15 -76 1 -82 2 -65 15 25 19 105 19
130 0z m166 -95 c10 -6 -68 -10 -230 -10 -162 0 -240 4 -230 10 8 5 108 10
230 10 122 0 222 -5 230 -10z m166 -95 c17 -13 -29 -14 -396 -14 -367 0 -413
1 -396 14 29 22 763 22 792 0z m-101 -95 c-4 -6 -113 -10 -295 -10 -182 0
-291 4 -295 10 -4 7 97 10 295 10 198 0 299 -3 295 -10z m-169 -95 c-27 -21
-220 -20 -256 0 -23 13 -10 14 125 14 134 0 148 -1 131 -14z m-436 -133 l205
-117 3 -235 c1 -129 0 -240 -2 -247 -4 -8 -78 29 -218 110 l-213 122 -3 160
c-3 165 5 325 16 324 4 0 99 -53 212 -117z m828 96 c17 -17 15 -103 -3 -118
-8 -7 -15 -23 -15 -35 0 -12 7 -28 15 -35 9 -8 15 -30 15 -60 0 -30 -6 -52
-15 -60 -8 -7 -15 -23 -15 -35 0 -12 7 -28 15 -35 16 -13 21 -90 6 -90 -5 0
-7 9 -4 19 12 48 -40 84 -82 57 -35 -23 -34 -70 1 -92 21 -15 23 -19 10 -26
-11 -6 -22 -2 -36 12 -26 26 -62 26 -85 -1 -16 -17 -17 -25 -8 -49 13 -35 8
-42 -23 -28 -29 14 -71 -11 -76 -44 -2 -14 -17 -31 -39 -43 -20 -11 -46 -26
-58 -33 -28 -17 -30 6 -1 31 11 9 20 26 20 37 0 11 -9 29 -20 40 -12 12 -20
33 -20 55 0 22 8 43 20 55 11 11 20 29 20 40 0 11 -9 29 -20 40 -12 12 -20 33
-20 55 0 22 8 43 20 55 22 22 25 42 9 71 -10 19 -8 20 24 14 44 -9 77 8 77 39
0 18 11 29 43 45 23 12 60 33 82 46 49 30 55 31 55 6 0 -20 35 -51 57 -51 20
0 53 38 53 60 0 11 -9 28 -19 37 -11 9 -18 20 -15 25 7 11 18 10 32 -4z"/>
<path d="M1077 1402 c-22 -24 -21 -55 1 -75 39 -36 92 -10 92 43 0 47 -61 68
-93 32z"/>
<path d="M992 1314 c-42 -29 -17 -104 35 -104 20 0 53 38 53 60 0 22 -33 60
-53 60 -7 0 -23 -7 -35 -16z"/>
<path d="M1182 1314 c-51 -35 -8 -117 50 -95 42 16 50 59 18 91 -24 24 -38 25
-68 4z"/>
<path d="M887 1212 c-22 -24 -21 -55 1 -75 39 -36 92 -10 92 43 0 47 -61 68
-93 32z"/>
<path d="M1077 1212 c-22 -24 -21 -55 1 -75 37 -34 92 -11 92 38 0 50 -60 73
-93 37z"/>
<path d="M992 1124 c-51 -36 -5 -122 50 -93 43 23 50 57 18 89 -24 24 -38 25
-68 4z"/>
<path d="M887 1022 c-22 -24 -21 -55 1 -75 39 -36 92 -10 92 43 0 47 -61 68
-93 32z"/>
</g>
</svg>
