<svg xmlns="http://www.w3.org/2000/svg" viewBox="0 0 1696.23 512"><defs><style>.cls-1{fill:#004e99;}.cls-2{fill:#2770b8;}.cls-3{fill:#2cb673;}</style></defs><g id="Layer_2" data-name="Layer 2"><g id="Layer_1-2" data-name="Layer 1"><path class="cls-1" d="M569.53,265.37a1.12,1.12,0,0,0,1-1V121.85l-18.46-.78a91.86,91.86,0,0,1,.26-12H614c0,3.9,0,8.06-.26,12.22l-21.32.52c-.52,0-.78.52-.78,1L591.37,183c0,.52.26.78,1.3.78l83.46.26V121.85l-22.1-.52c0-3.9,0-8.32.26-12.22h60.57c0,3.64,0,8.06-.26,12l-16.64.78c-.52,0-.78.52-.78,1l-.52,142.48,19.24.78c0,3.64-.26,8.06-.26,12h-29.9c-10.39,0-22.09.26-31.45.26,0-3.9.26-8.32.26-12.22l20.28-.78a1.19,1.19,0,0,0,1.3-1V197.77c0-.78-.52-1-1.3-1l-83.46.26-.26,68.38,23.14.78c0,3.64,0,8.32-.26,12.22-9.36,0-21.58-.26-32.5-.26-9.62,0-20.54.26-29.12.26,0-3.9,0-8.32.26-12.22Z"/><path class="cls-1" d="M790.52,166.31c13.52,0,23.92,4.94,30.68,13.52,7.54,9.36,9.88,22.1,9.88,33.54-1.3,3.38-6.24,9.36-8.84,9.62-15.34.52-49.66.78-65.78.78-.52,14.3,2.34,25.22,8.32,32.24,7.8,8.84,16.12,10.4,26.78,10.4,12,0,25.48-4.68,34.58-8.32a64,64,0,0,1,2.86,11.7c-14.56,7-30.16,10.92-41.34,10.92-33.8,0-52.52-22.1-52.52-52.26C735.14,194.39,757,166.31,790.52,166.31Zm-22.36,20.28c-3.38,3.9-10.14,12-10.92,25.22,14.82,0,35.88-.26,50.7-.78,2.08-.26,3.38-1,3.38-2.86,0-8.84-3.12-17.16-7-21.84a20.88,20.88,0,0,0-16.64-7.8C778.56,178.53,772.58,181.65,768.16,186.59Z"/><path class="cls-1" d="M915.58,269c-19,9.88-28.6,11.7-37.7,11.7-13,0-29.64-10.66-29.64-25.48,0-14.56,16.12-35.1,50.7-35.1,9.1.26,15.34.26,17.94.26.78-27.56-5.72-38.48-21.58-38.48-10.92,0-22.36,7.54-31.2,17.16-2.86-2.86-6.24-6.5-9.1-9.88,11.18-10.92,25.74-22.88,46.28-22.88,19.24,0,34.84,13.26,34.84,42.12,0,12.22-.26,43.68-.52,54.6q0,3.9,2.34,3.9l17.42-.52a76.44,76.44,0,0,1,0,10.92c-3.38,1-18.2,3.38-29.9,3.38-2.6-2.34-5.2-6.5-8.58-11.7Zm-28.86-2.08c7.54,0,19-3.64,28.86-10.66.78-.26.78-.78.78-2.08v-22.1a125.44,125.44,0,0,0-14.3-.52c-23.14,0-32.5,9.62-32.5,21.32C869.56,261.21,876.58,266.93,886.72,266.93Z"/><path class="cls-1" d="M963.68,266.93l17.42-.78c.52,0,.78-.52.78-1,.26-45.76.26-105.82.26-151.32l-20.8-.52c0-3.64,0-7.54.26-11.18,11.18-1,38.22-6,40.3-6,.52,0,.78.26.78,1-.26,47.06-1,117.26-1,169l20.28.52c0,3.64,0,7.8-.26,11.44H991.5c-9.36,0-19.5.26-28.08.26C963.42,274.73,963.42,270.57,963.68,266.93Z"/><path class="cls-1" d="M1057.8,273.69c-7-6.24-7.28-12.22-7.28-20,0-13.52.26-34.58.52-41.08,0-8.06.26-23.4.26-30.16h-17.94c0-4.16,0-8.84.26-12.74,5.72,0,11.44-.26,16.64-.52a2.19,2.19,0,0,0,1.82-1.82c0-7.28.52-16.38.78-23.92,6.76-4.42,17.68-8.84,18.46-8.84a.69.69,0,0,1,.78.78c-.26,8.84-.52,22.88-.52,33.8,13.26,0,27.55,0,40.81-.26,0,4.68-.51,9.62-.77,13.52h-40.56v29.12c-.26,10.66-.26,26.26-.26,39,0,11.18,7.8,16.12,16.9,16.12,6,0,15.85-1.82,25-4.16.77,3.64,1.3,7.8,1.81,11.44a118.41,118.41,0,0,1-36.39,6.5C1072.36,280.45,1064.82,280.19,1057.8,273.69Z"/><path class="cls-1" d="M1125.65,266.93l14.82-.78a1.12,1.12,0,0,0,1-1V113.53l-19.76-.26a79.34,79.34,0,0,1,.26-11.18c10.14-1,37.18-6,39.26-6,.52,0,.78.26.78,1,0,24.18-.52,55.9-.78,84.5l1,.26c27.56-14.82,32.76-15.6,42.38-15.6,13,0,23.4,9.1,29.12,18.72,2.86,5.2,3.64,12,3.64,19.24,0,19.76-.26,41.6-.52,61.88l17.16.52c0,3.64-.26,7.8-.26,11.44h-26.78c-8.32,0-18.2.26-26.26.26,0-3.64,0-7.54.26-11.44l15.34-.78c.52,0,.78-.52.78-1,.26-14.3.26-33.28.26-47.58,0-12.74-.26-21.06-3.9-27.3-4.42-7-11.7-8.32-16.38-8.32-10.66,0-25,6.76-35.62,14.56-.26,20.28-.52,50.18-.52,69.68l20,.52c0,3.64-.26,7.8-.26,11.44h-30.16c-7.54,0-17.42.26-25.22.26C1125.39,274.47,1125.39,270.57,1125.65,266.93Z"/><path class="cls-1" d="M1333.91,166.31c11.18,0,20,2.86,23.92,5.46,0,3.9-5.46,14-8.58,16.12-2.34-.78-12.74-6.5-23.4-6.5-10.14,0-16.64,3.38-22.1,9.62-6,6.5-12,17.94-12,34.06,0,14.56,2.86,23.92,9.62,31.72,6,7.54,15.34,9.88,23.4,9.88,10.14,0,23.4-4.42,32-7.8a54.28,54.28,0,0,1,2.86,11.18c-13.78,7-29.9,10.66-41.08,10.66-25.22,0-47.84-17.68-47.84-50.44C1270.73,192.83,1297,166.31,1333.91,166.31Z"/><path class="cls-1" d="M1440.25,269c-19,9.88-28.6,11.7-37.7,11.7-13,0-29.64-10.66-29.64-25.48,0-14.56,16.12-35.1,50.7-35.1,9.1.26,15.34.26,17.94.26.78-27.56-5.72-38.48-21.58-38.48-10.92,0-22.36,7.54-31.2,17.16-2.86-2.86-6.24-6.5-9.1-9.88,11.18-10.92,25.74-22.88,46.28-22.88,19.24,0,34.84,13.26,34.84,42.12,0,12.22-.26,43.68-.52,54.6q0,3.9,2.34,3.9l17.42-.52a76.44,76.44,0,0,1,0,10.92c-3.38,1-18.2,3.38-29.9,3.38-2.6-2.34-5.2-6.5-8.58-11.7Zm-28.86-2.08c7.54,0,19-3.64,28.86-10.66.78-.26.78-.78.78-2.08v-22.1a125.44,125.44,0,0,0-14.3-.52c-23.14,0-32.5,9.62-32.5,21.32C1394.23,261.21,1401.25,266.93,1411.39,266.93Z"/><path class="cls-1" d="M1493.81,267.19l15.08-.78a.83.83,0,0,0,.78-.78V184l-19-.26c0-3.38.26-7.28.26-10.66,10.4-1.56,34.58-6.76,36.14-6.76.26,0,.52.26.52.78.26,6.76.52,21.06,1,34.84h1c14.82-28.86,24.18-35.62,35.1-35.62a42.84,42.84,0,0,1,15.6,2.86c0,5.46-4.16,16.64-7.28,19.24-2.34-.52-8.58-2.08-13.26-2.08-2.6,0-5.2,1-8.84,3.9-4.94,3.9-10.4,11.44-17.16,24.18-2.86,6-4.16,15.34-4.42,23.92,0,9.1-.26,19.5-.26,27.82l24.7.78a82.36,82.36,0,0,1-.52,11.18h-33c-8.84,0-18.72.26-27,.26C1493.29,274.73,1493.55,270.57,1493.81,267.19Z"/><path class="cls-1" d="M1643.31,166.31c13.52,0,23.92,4.94,30.68,13.52,7.54,9.36,9.88,22.1,9.88,33.54-1.3,3.38-6.24,9.36-8.84,9.62-15.34.52-49.66.78-65.78.78-.52,14.3,2.34,25.22,8.32,32.24,7.8,8.84,16.12,10.4,26.78,10.4,12,0,25.48-4.68,34.58-8.32a64,64,0,0,1,2.86,11.7c-14.56,7-30.16,10.92-41.34,10.92-33.8,0-52.52-22.1-52.52-52.26C1587.93,194.39,1609.77,166.31,1643.31,166.31ZM1621,186.59c-3.38,3.9-10.14,12-10.92,25.22,14.82,0,35.88-.26,50.7-.78,2.08-.26,3.38-1,3.38-2.86,0-8.84-3.12-17.16-7-21.84a20.88,20.88,0,0,0-16.64-7.8C1631.35,178.53,1625.37,181.65,1621,186.59Z"/><path class="cls-2" d="M555.23,355.75c0-1.46,0-3,.1-4.5h23.8a33.81,33.81,0,0,1-.1,4.5l-7.8.3c-.2,0-.2.19-.2.39l-.29,53.67,8.49.29c0,1.38,0,3.14-.1,4.61-3.36,0-7.9-.1-11.85-.1s-8.3.1-11.85.1c0-1.47,0-3.14.1-4.61l7.11-.29a.36.36,0,0,0,.39-.39V356.05Z"/><path class="cls-2" d="M594,410.11c.19,0,.29-.1.29-.39V356.05l-7.21-.3c0-1.46,0-3.13.1-4.5h14.32c11.26,16.65,24.5,36.33,35.36,52.89l.49-.1c-.1-16-.19-32-.39-48l-9.29-.2c0-1.47.1-3.13.1-4.6h21.73c.1,1.37,0,3,0,4.5l-6,.3c-.2,0-.3.1-.3.39l-.3,58.08a14.09,14.09,0,0,1-5.23,1.08c-10.27-14-23.9-33.5-36.74-52.7h-.59c0,15.77-.1,31.44-.1,47.21l9.78.2c0,1.47,0,3.13-.1,4.6H596.91c-3.26,0-6.72.1-9.38.1,0-1.47,0-3.14.09-4.61Z"/><path class="cls-2" d="M679.28,410.11a.36.36,0,0,0,.39-.39V356.05a123,123,0,0,0-12.84.39c-1.87.2-2.27.78-2.47,1.86l-1.58,9.5c-1.77-.19-3.75-.29-5.53-.49.4-5.39.59-10.87,1-16.16,1.88,0,5.14.1,9.09.1h33.48c4.05-.1,6.42-.1,8.59-.1.3,5.29.59,10.68.79,16.06-1.68.2-3.65.4-5.53.59l-1.58-9.6c-.1-1.08-.59-1.66-2.37-1.76-2.67-.29-4.45-.29-12.94-.29l-.3,54,9.09.29c0,1.38-.1,3.14-.1,4.61-3.55,0-8.39-.1-12.44-.1s-8.69.1-12.84.1c0-1.57,0-3.14.1-4.61Z"/><path class="cls-2" d="M725.3,410.11a.31.31,0,0,0,.29-.29V356.05l-7.3-.3c0-1.46.09-3,.19-4.5h33.19c4.15-.1,6.42-.1,8.59-.1.4,4.9.69,9.89.89,14.89-1.58.19-3.36.49-5.23.59l-1.58-8.53c-.2-.88-.7-1.46-2.28-1.66-2.56-.29-9.18-.49-15.6-.49h-3L733.4,380c5.53,0,10.17,0,15.5-.09,1.68-.1,2.18-.69,2.27-2l.5-4.7h5c-.1,3-.1,6.17-.2,9.4v9c-1.58.1-3.36.19-5,.19l-.39-5.19c-.1-1.37-.7-1.86-2.37-1.86-4.45-.09-9.49-.09-15.31-.09l-.1,23.5c0,1.67.29,2,5.53,2,8,0,13.63-.29,15.31-.69.89-.19,1.38-.88,1.78-1.95l3.16-8.92c1.77.3,3.65.69,5.13,1-1.08,5.09-2.27,10.29-3.46,15.38-4.54,0-17.38-.1-30.71-.1-4.15,0-8.1.1-11.66.1V410.4Z"/><path class="cls-2" d="M818.14,360a2.8,2.8,0,0,0-.89-1.87c-2.47-2-6.13-2.64-10.18-2.64A23,23,0,0,0,791,361.73c-5.54,5.19-8.7,12.73-8.7,21.84,0,8.52,2.08,15.38,7,20.37,5.72,6,12.93,7.25,18.47,7.25,5.13,0,9.08-1.37,9.08-2.35l.1-16.65-10.67-.2c0-1.47.1-3.13.2-4.7,4,0,9.19.1,14.22.1,3.26,0,6.62-.1,9.58-.1,0,1.47,0,3.23-.09,4.7l-5,.2c-.3,0-.4.1-.4.39l-.19,20.08c-3.36,2-9.68,3.23-17.58,3.23-9.39,0-17.19-2.35-22.42-6.66-6.72-5.68-10.87-13.42-10.87-24.58A33.76,33.76,0,0,1,788,356.54c6.72-4.8,15.51-6.27,21.34-6.27,6.42,0,11.55,1.08,14.91,2.74.3,5.19.59,10.78.79,16.16-1.78.2-3.75.39-5.63.59Z"/><path class="cls-2" d="M840.16,355.85c0-1.47,0-3,.1-4.5,5.53-.1,12.44-.2,19.06-.2,5.63,0,8.79.2,13.53,1.57,6.62,1.76,12,7.83,12,14.69,0,8.52-5.73,14.69-13.43,17.63v.49c4.74,2.05,7.21,7.74,12.24,17.24C887.07,409,888,410,889.15,410l6,.3c0,1.47,0,3.13-.1,4.6-1.78,0-4.44,0-6.52.1-1.87,0-5,.1-6.42.1-3.45-4.61-9.48-18-12.64-22.82-2.27-3.43-4.34-4.61-9.18-4.61a38.39,38.39,0,0,0-5.73.2V410l8.29.39c0,1.38,0,3-.09,4.51H850.83c-3.76,0-7.51,0-10.77.1,0-1.57.1-3.14.1-4.61l6.32-.29a.35.35,0,0,0,.39-.39l.1-53.57ZM854.68,383a27.91,27.91,0,0,0,5.23.2c12.54,0,16.89-7.84,16.89-13.71,0-9.21-6.62-13.81-16.3-13.81-3.25,0-5,.19-5.63.49Z"/><path class="cls-2" d="M901.19,410.11a.51.51,0,0,0,.5-.39c6.91-17.53,16.1-41.82,22.91-59.25,1.09-.1,3.26-.2,5.33-.2,6.62,17.63,15.21,42.11,21.63,59.84l6,.29c0,1.38,0,3-.1,4.51h-9.28c-4.55,0-9.09.1-13,.1,0-1.57.1-3.14.1-4.61l7.7-.29c.2,0,.3-.19.2-.49-1.58-4.41-3.46-9.89-5-14.1-.1-.39-.29-.49-.69-.49l-23.6.1c-1.58,4.7-3.66,10.48-5.24,15l8.89.29c0,1.38,0,3-.1,4.51H904.26c-2.87,0-6,.1-8.7.1,0-1.57.1-3.14.1-4.61Zm24.89-48.77c-3.36,8.91-7.21,19.78-10.47,28.4-.1.39-.1.59.2.59l20.74.1c-3.06-9-6.91-20.08-10.07-29.09Z"/><path class="cls-2" d="M976.65,410.11a.35.35,0,0,0,.39-.39V356.05a123.14,123.14,0,0,0-12.84.39c-1.87.2-2.27.78-2.46,1.86l-1.58,9.5c-1.78-.19-3.76-.29-5.54-.49.4-5.39.6-10.87,1-16.16,1.88,0,5.14.1,9.09.1h33.48c4.05-.1,6.42-.1,8.59-.1.3,5.29.6,10.68.79,16.06-1.68.2-3.65.4-5.53.59l-1.58-9.6c-.1-1.08-.59-1.66-2.37-1.76-2.67-.29-4.44-.29-12.94-.29l-.29,54,9.08.29c0,1.38-.1,3.14-.1,4.61-3.55,0-8.39-.1-12.44-.1s-8.69.1-12.84.1c0-1.57,0-3.14.1-4.61Z"/><path class="cls-2" d="M1015.16,355.75c0-1.46,0-3,.1-4.5h23.81a33.81,33.81,0,0,1-.1,4.5l-7.81.3c-.19,0-.19.19-.19.39l-.3,53.67,8.5.29c0,1.38,0,3.14-.1,4.61-3.36,0-7.91-.1-11.86-.1s-8.29.1-11.85.1c0-1.47,0-3.14.1-4.61l7.11-.29a.36.36,0,0,0,.4-.39V356.05Z"/><path class="cls-2" d="M1100.2,356.05c-3.06,8.23-7,18.21-10.47,26.83-4,10-8.79,22.73-13.33,32.91-.79.1-3.36.1-5.63.1-4.15-10.68-8.79-23.51-12.55-34-2.86-8.22-5.92-17.43-8.69-25.56,0-.19-.29-.29-.59-.29l-5.63-.3a33.85,33.85,0,0,1,.1-4.5h24.89a35.71,35.71,0,0,1-.1,4.6l-9.68.3c1.09,3.91,5.23,17.33,6.91,22.33,2.87,8.71,5.93,18.21,9.19,27.32h.49c3.36-8.52,6.72-17.63,9.48-25.27,2.37-6.66,6.72-18.9,8.1-24,0-.2-.1-.39-.29-.39l-8.6-.3c-.1-1.47,0-3.23,0-4.6h22c0,1.37,0,3-.1,4.5Z"/><path class="cls-2" d="M1117.88,410.11a.32.32,0,0,0,.29-.29V356.05l-7.31-.3c0-1.46.1-3,.2-4.5h33.19c4.15-.1,6.42-.1,8.59-.1.39,4.9.69,9.89.89,14.89-1.58.19-3.36.49-5.24.59l-1.58-8.53c-.19-.88-.69-1.46-2.27-1.66-2.57-.29-9.18-.49-15.6-.49h-3L1126,380c5.53,0,10.17,0,15.5-.09,1.68-.1,2.17-.69,2.27-2l.5-4.7h5c-.1,3-.1,6.17-.19,9.4v9c-1.58.1-3.36.19-5,.19l-.4-5.19c-.09-1.37-.69-1.86-2.37-1.86-4.44-.09-9.48-.09-15.3-.09l-.1,23.5c0,1.67.29,2,5.53,2,8,0,13.63-.29,15.31-.69.88-.19,1.38-.88,1.77-1.95l3.16-8.92c1.78.3,3.66.69,5.14,1-1.09,5.09-2.27,10.29-3.46,15.38-4.54,0-17.38-.1-30.71-.1-4.15,0-8.1.1-11.66.1V410.4Z"/><path class="cls-2" d="M1194,407.57a1.3,1.3,0,0,0,.79,1.07c1.88,1.28,5.73,2.26,9.19,2.26,4.64,0,9-1.47,11.26-3.82a10.4,10.4,0,0,0,3.16-7.84c0-8.52-4.65-10-14.23-14.4-8.69-3.92-14.91-8.42-14.91-16.94a17.07,17.07,0,0,1,6.42-13c3.75-2.94,9.38-4.6,16.1-4.6,4.44,0,9.58.88,12,2.15.49,4.7.89,9.8,1.18,14.5-1.77.2-3.65.49-5.53.69l-1.68-9.21a2.14,2.14,0,0,0-.69-1.18c-1.58-1.27-4.24-2-7.31-2-3.45,0-6.91.89-9.28,2.94a10.68,10.68,0,0,0-3.75,8.13c0,6.86,3.26,8.42,13.53,12.93,9.87,4.31,15.6,8.62,15.6,17.53a17.44,17.44,0,0,1-5.82,13.61c-3.95,3.63-9.58,5.49-17.68,5.49-4.84,0-11.16-1-14.52-2.35-.5-5.09-.89-10.48-1.29-15.48,1.88-.29,3.86-.58,5.63-.78Z"/><path class="cls-2" d="M1245.57,407.66c-5.43-5.48-8.69-13.61-8.69-24,0-12.64,6.23-22.72,13.73-27.92a32.07,32.07,0,0,1,18.67-5.48,27.9,27.9,0,0,1,16.49,4.9c7.21,5,12.15,14.69,12.15,25.95,0,10.19-3.36,20.08-10.37,26.84-5.14,5-11.65,7.93-21.43,7.93A28.12,28.12,0,0,1,1245.57,407.66Zm36.65-2.74c3.85-4.41,7.21-10.87,7.21-21.74,0-9-2.28-16.75-7.11-21.94-3.76-4.21-8.4-6.07-14.33-6.07a20.45,20.45,0,0,0-13.92,5.09c-4.64,4.11-8.69,11.75-8.69,22.72,0,9.7,2,16.46,7.21,21.94A19.91,19.91,0,0,0,1267.5,411C1273.43,411,1278.66,408.94,1282.22,404.92Z"/><path class="cls-2" d="M1306.61,355.85c0-1.56.1-3.13.2-4.6h24.1c0,1.47,0,3.13-.1,4.6l-8.69.2c-.2,0-.2.1-.2.39l-.3,51.81c0,1.76.1,2.06,4.25,2.06,11,0,14.22-.3,15.8-.59.89-.2,1.39-.88,1.78-2.06l3.56-10.28a35.57,35.57,0,0,1,5.13,1.17c-1,4.8-2.57,11.27-3.85,16.46-4.64,0-16.69-.1-30-.1-4.15,0-8.1.1-11.66.1,0-1.47.1-3.14.1-4.61l6.81-.29c.2,0,.3-.1.3-.39l.1-53.67Z"/><path class="cls-2" d="M1371.5,388.37c-.1,9.6,1.38,13.61,4,17,1.78,2.35,5,5.19,11.75,5.19,6.32,0,9.19-2.25,11.46-4.5,2.37-2.45,4.74-8.23,4.74-17.24,0-9.4.1-22.43,0-32.42a.36.36,0,0,0-.4-.39l-8.29-.2c0-1.47,0-3.13.1-4.6h21.72a37.88,37.88,0,0,1-.09,4.6l-6.23.3-.19,32.81c-.1,10.67-3.36,17.14-7,20.86-2.76,2.94-8.1,6.07-16.09,6.07-6.92,0-12.75-1.66-16.89-5.68-5.63-5.49-6.52-12.15-6.52-21.06V356.64c0-.4-.1-.59-.5-.59l-6-.2c0-1.56,0-3.13.1-4.6h23.31a36.89,36.89,0,0,1-.2,4.6l-8.69.2Z"/><path class="cls-2" d="M1445.27,410.11a.36.36,0,0,0,.4-.39V356.05a123,123,0,0,0-12.84.39c-1.88.2-2.27.78-2.47,1.86l-1.58,9.5c-1.78-.19-3.75-.29-5.53-.49.39-5.39.59-10.87,1-16.16,1.87,0,5.13.1,9.08.1h33.49c4-.1,6.41-.1,8.59-.1.29,5.29.59,10.68.79,16.06-1.68.2-3.66.4-5.53.59l-1.58-9.6c-.1-1.08-.6-1.66-2.37-1.76-2.67-.29-4.45-.29-12.94-.29l-.3,54,9.09.29c0,1.38-.1,3.14-.1,4.61-3.56,0-8.4-.1-12.45-.1s-8.69.1-12.83.1c0-1.57,0-3.14.09-4.61Z"/><path class="cls-2" d="M1483.79,355.75c0-1.46,0-3,.1-4.5h23.8a33.81,33.81,0,0,1-.1,4.5l-7.8.3c-.2,0-.2.19-.2.39l-.29,53.67,8.49.29c0,1.38,0,3.14-.1,4.61-3.36,0-7.9-.1-11.85-.1s-8.3.1-11.85.1c0-1.47,0-3.14.1-4.61l7.11-.29a.36.36,0,0,0,.39-.39V356.05Z"/><path class="cls-2" d="M1524.38,407.66c-5.43-5.48-8.69-13.61-8.69-24,0-12.64,6.22-22.72,13.73-27.92a32.07,32.07,0,0,1,18.67-5.48,27.9,27.9,0,0,1,16.49,4.9c7.21,5,12.15,14.69,12.15,25.95,0,10.19-3.36,20.08-10.37,26.84-5.14,5-11.66,7.93-21.43,7.93A28.1,28.1,0,0,1,1524.38,407.66Zm36.64-2.74c3.86-4.41,7.21-10.87,7.21-21.74,0-9-2.27-16.75-7.11-21.94-3.75-4.21-8.39-6.07-14.32-6.07a20.45,20.45,0,0,0-13.92,5.09c-4.65,4.11-8.7,11.75-8.7,22.72,0,9.7,2,16.46,7.21,21.94a19.94,19.94,0,0,0,14.92,6.07C1552.23,411,1557.47,408.94,1561,404.92Z"/><path class="cls-2" d="M1592,410.11c.19,0,.29-.1.29-.39V356.05l-7.21-.3c0-1.46,0-3.13.1-4.5h14.32c11.26,16.65,24.5,36.33,35.36,52.89l.49-.1c-.09-16-.19-32-.39-48l-9.29-.2c0-1.47.1-3.13.1-4.6h21.73c.1,1.37,0,3,0,4.5l-6,.3c-.2,0-.3.1-.3.39l-.29,58.08a14.19,14.19,0,0,1-5.24,1.08c-10.27-14-23.9-33.5-36.74-52.7h-.59c0,15.77-.1,31.44-.1,47.21l9.78.2c0,1.47,0,3.13-.1,4.6H1595c-3.26,0-6.72.1-9.38.1,0-1.47,0-3.14.09-4.61Z"/><path class="cls-2" d="M1664.33,407.57a1.3,1.3,0,0,0,.79,1.07c1.88,1.28,5.73,2.26,9.19,2.26,4.64,0,9-1.47,11.25-3.82a10.36,10.36,0,0,0,3.16-7.84c0-8.52-4.64-10-14.22-14.4-8.69-3.92-14.91-8.42-14.91-16.94a17.07,17.07,0,0,1,6.42-13c3.75-2.94,9.38-4.6,16.1-4.6,4.44,0,9.58.88,12.05,2.15.49,4.7.89,9.8,1.18,14.5-1.78.2-3.65.49-5.53.69l-1.68-9.21a2.2,2.2,0,0,0-.69-1.18c-1.58-1.27-4.25-2-7.31-2-3.45,0-6.91.89-9.28,2.94a10.65,10.65,0,0,0-3.75,8.13c0,6.86,3.25,8.42,13.53,12.93,9.87,4.31,15.6,8.62,15.6,17.53a17.41,17.41,0,0,1-5.83,13.61c-4,3.63-9.58,5.49-17.67,5.49-4.84,0-11.17-1-14.52-2.35-.5-5.09-.89-10.48-1.29-15.48,1.88-.29,3.85-.58,5.63-.78Z"/><rect class="cls-3" x="552.23" y="310.31" width="1144" height="8"/><rect class="cls-3" x="216" y="136" width="80" height="240"/><rect class="cls-3" x="216" y="136" width="80" height="240" transform="translate(512) rotate(90)"/><circle class="cls-2" cx="256" cy="27" r="27"/><circle class="cls-2" cx="485" cy="256" r="27"/><circle class="cls-2" cx="256" cy="485" r="27"/><circle class="cls-2" cx="27" cy="256" r="27"/><path class="cls-1" d="M86.14,296H124V216H86.14a174.24,174.24,0,0,1,42.36-79l-28.34-28.34A212.54,212.54,0,0,0,44.24,221.53a39,39,0,0,1,.15,69.86,212.6,212.6,0,0,0,55.76,112L128.5,375A174.24,174.24,0,0,1,86.14,296Z"/><path class="cls-1" d="M216,86.14V124h80V86.14a174.24,174.24,0,0,1,79,42.36l28.35-28.35A212.57,212.57,0,0,0,291.16,44.36h0a39,39,0,0,1-70.3,0h0a212.57,212.57,0,0,0-112.21,55.79L137,128.5A174.24,174.24,0,0,1,216,86.14Z"/><path class="cls-1" d="M446,256.5a39,39,0,0,1,21.76-35,212.54,212.54,0,0,0-55.92-112.89L383.5,137a174.24,174.24,0,0,1,42.36,79H388v80h37.84a174.24,174.24,0,0,1-42.36,79l28.35,28.35a212.6,212.6,0,0,0,55.76-112A39,39,0,0,1,446,256.5Z"/><path class="cls-1" d="M296,425.86V388H216v37.87a174.24,174.24,0,0,1-79-42.36l-28.35,28.35a212.57,212.57,0,0,0,112.21,55.79,39,39,0,0,1,70.32,0,212.57,212.57,0,0,0,112.21-55.79L375,383.5A174.24,174.24,0,0,1,296,425.86Z"/></g></g></svg>