<?xml version="1.0" encoding="utf-8"?>
<!-- Generator: Adobe Illustrator 24.0.3, SVG Export Plug-In . SVG Version: 6.00 Build 0)  -->
<svg version="1.1" id="Layer_1" xmlns="http://www.w3.org/2000/svg" xmlns:xlink="http://www.w3.org/1999/xlink" x="0px" y="0px"
	 viewBox="0 0 366.3 103" style="enable-background:new 0 0 366.3 103;" xml:space="preserve">
<style type="text/css">
	.st0{fill:#231F20;}
	.st1{clip-path:url(#SVGID_2_);}
	.st2{fill:#004A7D;}
	.st3{fill:#FFFFFF;}
	.st4{opacity:0.5;}
	.st5{clip-path:url(#SVGID_4_);fill:#FFFFFF;}
	.st6{clip-path:url(#SVGID_6_);fill:#FFFFFF;}
	.st7{clip-path:url(#SVGID_8_);fill:#FFFFFF;}
	.st8{clip-path:url(#SVGID_10_);fill:#FFFFFF;}
	.st9{clip-path:url(#SVGID_12_);fill:#FFFFFF;}
	.st10{clip-path:url(#SVGID_14_);fill:#FFFFFF;}
	.st11{clip-path:url(#SVGID_16_);fill:#FFFFFF;}
	.st12{clip-path:url(#SVGID_18_);fill:#FFFFFF;}
	.st13{clip-path:url(#SVGID_20_);fill:#FFFFFF;}
	.st14{clip-path:url(#SVGID_22_);fill:#FFFFFF;}
	.st15{clip-path:url(#SVGID_24_);fill:#FFFFFF;}
	.st16{clip-path:url(#SVGID_26_);fill:#FFFFFF;}
	.st17{clip-path:url(#SVGID_28_);fill:#FFFFFF;}
	.st18{clip-path:url(#SVGID_30_);fill:#FFFFFF;}
	.st19{clip-path:url(#SVGID_32_);fill:#FFFFFF;}
	.st20{clip-path:url(#SVGID_34_);fill:#FFFFFF;}
	.st21{clip-path:url(#SVGID_36_);fill:#FFFFFF;}
	.st22{clip-path:url(#SVGID_38_);fill:#FFFFFF;}
	.st23{clip-path:url(#SVGID_40_);fill:#FFFFFF;}
	.st24{clip-path:url(#SVGID_42_);fill:#FFFFFF;}
	.st25{clip-path:url(#SVGID_44_);fill:#FFFFFF;}
	.st26{clip-path:url(#SVGID_46_);fill:#FFFFFF;}
	.st27{clip-path:url(#SVGID_48_);fill:#FFFFFF;}
	.st28{clip-path:url(#SVGID_50_);fill:#FFFFFF;}
	.st29{clip-path:url(#SVGID_52_);fill:#FFFFFF;}
	.st30{clip-path:url(#SVGID_54_);fill:#FFFFFF;}
	.st31{clip-path:url(#SVGID_56_);fill:#FFFFFF;}
	.st32{clip-path:url(#SVGID_58_);fill:#FFFFFF;}
	.st33{clip-path:url(#SVGID_60_);fill:#FFFFFF;}
	.st34{clip-path:url(#SVGID_62_);fill:#FFFFFF;}
	.st35{clip-path:url(#SVGID_64_);fill:#FFFFFF;}
	.st36{clip-path:url(#SVGID_66_);fill:#FFFFFF;}
	.st37{clip-path:url(#SVGID_68_);fill:#FFFFFF;}
	.st38{clip-path:url(#SVGID_70_);fill:#FFFFFF;}
	.st39{clip-path:url(#SVGID_72_);fill:#FFFFFF;}
	.st40{clip-path:url(#SVGID_74_);fill:#FFFFFF;}
	.st41{clip-path:url(#SVGID_76_);fill:#FFFFFF;}
	.st42{clip-path:url(#SVGID_78_);fill:#FFFFFF;}
	.st43{clip-path:url(#SVGID_80_);fill:#FFFFFF;}
</style>
<g>
	<g>
		<path class="st0" d="M128.8,40.4h-11.5v-7.7h31.3v7.7h-11.5v30.1h-8.3V40.4z"/>
		<path class="st0" d="M147.9,41.5h8.2v5.8c1.7-4,4.4-6.6,9.2-6.4v8.6h-0.4c-5.5,0-8.8,3.3-8.8,10.2v10.7h-8.2L147.9,41.5
			L147.9,41.5z"/>
		<path class="st0" d="M165.2,56.2v-0.1c0-8.3,5.9-15.1,14.3-15.1c9.7,0,14.1,7.5,14.1,15.7c0,0.6-0.1,1.4-0.1,2.2h-20.1
			c0.8,3.7,3.4,5.7,7.1,5.7c2.8,0,4.8-0.9,7-3l4.7,4.2c-2.7,3.3-6.6,5.4-11.8,5.4C171.6,71.1,165.2,65,165.2,56.2z M185.6,53.8
			c-0.5-3.7-2.6-6.2-6.1-6.2c-3.4,0-5.6,2.4-6.3,6.2H185.6z"/>
		<path class="st0" d="M196.7,41.5h8.2v4.1c1.9-2.4,4.3-4.6,8.5-4.6c6.2,0,9.8,4.1,9.8,10.7v18.7H215V54.3c0-3.9-1.8-5.9-5-5.9
			c-3.1,0-5.1,2-5.1,5.9v16.1h-8.2L196.7,41.5L196.7,41.5z"/>
		<path class="st0" d="M226.1,56.1V56c0-9.7,6.3-15,13.2-15c4.4,0,7.1,2,9,4.3V31.1h8.2v39.4h-8.2v-4.2c-2,2.7-4.8,4.7-9,4.7
			C232.5,71,226.1,65.7,226.1,56.1z M248.4,56.1V56c0-4.8-3.2-8-7-8s-7.1,3.1-7.1,8v0.1c0,4.8,3.2,8,7.1,8S248.4,60.9,248.4,56.1z"
			/>
		<path class="st0" d="M261.7,32.7h8.3v30.2h18.8v7.6h-27.2V32.7H261.7z"/>
		<path class="st0" d="M291.5,31.1h8.6v7.3h-8.6L291.5,31.1L291.5,31.1z M291.7,41.5h8.2v28.9h-8.2V41.5z"/>
		<path class="st0" d="M304.7,41.5h8.2v4.1c1.9-2.4,4.3-4.6,8.5-4.6c6.2,0,9.8,4.1,9.8,10.7v18.7H323V54.3c0-3.9-1.8-5.9-5-5.9
			c-3.1,0-5.1,2-5.1,5.9v16.1h-8.2V41.5z"/>
		<path class="st0" d="M333.9,56.2v-0.1c0-8.3,5.9-15.1,14.3-15.1c9.7,0,14.1,7.5,14.1,15.7c0,0.6-0.1,1.4-0.1,2.2h-20.1
			c0.8,3.7,3.4,5.7,7.1,5.7c2.8,0,4.8-0.9,7-3l4.7,4.2c-2.7,3.3-6.6,5.4-11.8,5.4C340.4,71.1,333.9,65,333.9,56.2z M354.3,53.8
			c-0.5-3.7-2.6-6.2-6.1-6.2c-3.4,0-5.6,2.4-6.3,6.2H354.3z"/>
	</g>
	<g>
		<g>
			<defs>
				<path id="SVGID_1_" d="M102.6,51.4c0,27.1-22,49.2-49.2,49.2c-27.1,0-49.2-22-49.2-49.2c0-27.1,22-49.2,49.2-49.2
					C80.6,2.3,102.6,24.3,102.6,51.4"/>
			</defs>
			<clipPath id="SVGID_2_">
				<use xlink:href="#SVGID_1_"  style="overflow:visible;"/>
			</clipPath>
			<g class="st1">
				<path class="st2" d="M102.6,51.4c0,27.1-22,49.2-49.2,49.2c-27.1,0-49.2-22-49.2-49.2c0-27.1,22-49.2,49.2-49.2
					C80.6,2.3,102.6,24.3,102.6,51.4"/>
				<path class="st3" d="M39.8,66.7c0-3.4-2.8-6.2-6.2-6.2s-6.2,2.8-6.2,6.2c0,3.4,2.8,6.2,6.2,6.2C37,73,39.8,70.2,39.8,66.7"/>
				<path class="st3" d="M71.1,66.7c0-3.4-2.8-6.2-6.2-6.2c-3.4,0-6.2,2.8-6.2,6.2c0,3.4,2.8,6.2,6.2,6.2
					C68.3,73,71.1,70.2,71.1,66.7"/>
				<g class="st4">
					<g>
						<g>
							<defs>
								<rect id="SVGID_3_" x="43" y="60.5" width="12.5" height="12.5"/>
							</defs>
							<clipPath id="SVGID_4_">
								<use xlink:href="#SVGID_3_"  style="overflow:visible;"/>
							</clipPath>
							<path class="st5" d="M55.5,66.7c0-3.4-2.8-6.2-6.2-6.2c-3.4,0-6.2,2.8-6.2,6.2c0,3.4,2.8,6.2,6.2,6.2
								C52.7,73,55.5,70.2,55.5,66.7"/>
						</g>
					</g>
				</g>
				<g class="st4">
					<g>
						<g>
							<defs>
								<rect id="SVGID_5_" x="11.7" y="60.5" width="12.5" height="12.5"/>
							</defs>
							<clipPath id="SVGID_6_">
								<use xlink:href="#SVGID_5_"  style="overflow:visible;"/>
							</clipPath>
							<path class="st6" d="M24.1,66.7c0-3.4-2.8-6.2-6.2-6.2s-6.2,2.8-6.2,6.2c0,3.4,2.8,6.2,6.2,6.2C21.3,73,24.1,70.2,24.1,66.7"
								/>
						</g>
					</g>
				</g>
				<g class="st4">
					<g>
						<g>
							<defs>
								<rect id="SVGID_7_" x="-4" y="60.5" width="12.5" height="12.5"/>
							</defs>
							<clipPath id="SVGID_8_">
								<use xlink:href="#SVGID_7_"  style="overflow:visible;"/>
							</clipPath>
							<path class="st7" d="M8.5,66.7c0-3.4-2.8-6.2-6.2-6.2s-6.2,2.8-6.2,6.2c0,3.4,2.8,6.2,6.2,6.2C5.7,73,8.5,70.2,8.5,66.7"/>
						</g>
					</g>
				</g>
				<g class="st4">
					<g>
						<g>
							<defs>
								<rect id="SVGID_9_" x="90" y="60.5" width="12.5" height="12.5"/>
							</defs>
							<clipPath id="SVGID_10_">
								<use xlink:href="#SVGID_9_"  style="overflow:visible;"/>
							</clipPath>
							<path class="st8" d="M102.5,66.7c0-3.4-2.8-6.2-6.2-6.2c-3.4,0-6.2,2.8-6.2,6.2c0,3.4,2.8,6.2,6.2,6.2
								C99.7,73,102.5,70.2,102.5,66.7"/>
						</g>
					</g>
				</g>
				<g class="st4">
					<g>
						<g>
							<defs>
								<rect id="SVGID_11_" x="74.3" y="60.5" width="12.5" height="12.5"/>
							</defs>
							<clipPath id="SVGID_12_">
								<use xlink:href="#SVGID_11_"  style="overflow:visible;"/>
							</clipPath>
							<path class="st9" d="M86.8,66.7c0-3.4-2.8-6.2-6.2-6.2c-3.4,0-6.2,2.8-6.2,6.2c0,3.4,2.8,6.2,6.2,6.2
								C84,73,86.8,70.2,86.8,66.7"/>
						</g>
					</g>
				</g>
				<path class="st3" d="M39.8,81.9c0-3.4-2.8-6.2-6.2-6.2s-6.2,2.8-6.2,6.2c0,3.4,2.8,6.2,6.2,6.2C37,88.1,39.8,85.3,39.8,81.9"/>
				<path class="st3" d="M71.1,81.9c0-3.4-2.8-6.2-6.2-6.2c-3.4,0-6.2,2.8-6.2,6.2c0,3.4,2.8,6.2,6.2,6.2
					C68.3,88.1,71.1,85.3,71.1,81.9"/>
				<g class="st4">
					<g>
						<g>
							<defs>
								<rect id="SVGID_13_" x="43" y="75.6" width="12.5" height="12.5"/>
							</defs>
							<clipPath id="SVGID_14_">
								<use xlink:href="#SVGID_13_"  style="overflow:visible;"/>
							</clipPath>
							<path class="st10" d="M55.5,81.9c0-3.4-2.8-6.2-6.2-6.2c-3.4,0-6.2,2.8-6.2,6.2c0,3.4,2.8,6.2,6.2,6.2S55.5,85.3,55.5,81.9"
								/>
						</g>
					</g>
				</g>
				<g class="st4">
					<g>
						<g>
							<defs>
								<rect id="SVGID_15_" x="11.7" y="75.6" width="12.5" height="12.5"/>
							</defs>
							<clipPath id="SVGID_16_">
								<use xlink:href="#SVGID_15_"  style="overflow:visible;"/>
							</clipPath>
							<path class="st11" d="M24.1,81.9c0-3.4-2.8-6.2-6.2-6.2s-6.2,2.8-6.2,6.2c0,3.4,2.8,6.2,6.2,6.2S24.1,85.3,24.1,81.9"/>
						</g>
					</g>
				</g>
				<g class="st4">
					<g>
						<g>
							<defs>
								<rect id="SVGID_17_" x="-4" y="75.6" width="12.5" height="12.5"/>
							</defs>
							<clipPath id="SVGID_18_">
								<use xlink:href="#SVGID_17_"  style="overflow:visible;"/>
							</clipPath>
							<path class="st12" d="M8.5,81.9c0-3.4-2.8-6.2-6.2-6.2s-6.2,2.8-6.2,6.2c0,3.4,2.8,6.2,6.2,6.2S8.5,85.3,8.5,81.9"/>
						</g>
					</g>
				</g>
				<path class="st3" d="M102.5,81.9c0-3.4-2.8-6.2-6.2-6.2c-3.4,0-6.2,2.8-6.2,6.2c0,3.4,2.8,6.2,6.2,6.2S102.5,85.3,102.5,81.9"/>
				<path class="st3" d="M86.8,81.9c0-3.4-2.8-6.2-6.2-6.2c-3.4,0-6.2,2.8-6.2,6.2c0,3.4,2.8,6.2,6.2,6.2S86.8,85.3,86.8,81.9"/>
				<path class="st3" d="M39.8,51.6c0-3.4-2.8-6.2-6.2-6.2s-6.2,2.8-6.2,6.2c0,3.4,2.8,6.2,6.2,6.2C37,57.8,39.8,55,39.8,51.6"/>
				<path class="st3" d="M71.1,51.6c0-3.4-2.8-6.2-6.2-6.2c-3.4,0-6.2,2.8-6.2,6.2c0,3.4,2.8,6.2,6.2,6.2
					C68.3,57.8,71.1,55,71.1,51.6"/>
				<g class="st4">
					<g>
						<g>
							<defs>
								<rect id="SVGID_19_" x="43" y="45.4" width="12.5" height="12.5"/>
							</defs>
							<clipPath id="SVGID_20_">
								<use xlink:href="#SVGID_19_"  style="overflow:visible;"/>
							</clipPath>
							<path class="st13" d="M55.5,51.6c0-3.4-2.8-6.2-6.2-6.2c-3.4,0-6.2,2.8-6.2,6.2c0,3.4,2.8,6.2,6.2,6.2S55.5,55,55.5,51.6"/>
						</g>
					</g>
				</g>
				<g class="st4">
					<g>
						<g>
							<defs>
								<rect id="SVGID_21_" x="11.7" y="45.4" width="12.5" height="12.5"/>
							</defs>
							<clipPath id="SVGID_22_">
								<use xlink:href="#SVGID_21_"  style="overflow:visible;"/>
							</clipPath>
							<path class="st14" d="M24.1,51.6c0-3.4-2.8-6.2-6.2-6.2s-6.2,2.8-6.2,6.2c0,3.4,2.8,6.2,6.2,6.2S24.1,55,24.1,51.6"/>
						</g>
					</g>
				</g>
				<g class="st4">
					<g>
						<g>
							<defs>
								<rect id="SVGID_23_" x="-4" y="45.4" width="12.5" height="12.5"/>
							</defs>
							<clipPath id="SVGID_24_">
								<use xlink:href="#SVGID_23_"  style="overflow:visible;"/>
							</clipPath>
							<path class="st15" d="M8.5,51.6c0-3.4-2.8-6.2-6.2-6.2s-6.2,2.8-6.2,6.2c0,3.4,2.8,6.2,6.2,6.2S8.5,55,8.5,51.6"/>
						</g>
					</g>
				</g>
				<g class="st4">
					<g>
						<g>
							<defs>
								<rect id="SVGID_25_" x="90" y="45.4" width="12.5" height="12.5"/>
							</defs>
							<clipPath id="SVGID_26_">
								<use xlink:href="#SVGID_25_"  style="overflow:visible;"/>
							</clipPath>
							<path class="st16" d="M102.5,51.6c0-3.4-2.8-6.2-6.2-6.2c-3.4,0-6.2,2.8-6.2,6.2c0,3.4,2.8,6.2,6.2,6.2S102.5,55,102.5,51.6"
								/>
						</g>
					</g>
				</g>
				<g class="st4">
					<g>
						<g>
							<defs>
								<rect id="SVGID_27_" x="74.3" y="45.4" width="12.5" height="12.5"/>
							</defs>
							<clipPath id="SVGID_28_">
								<use xlink:href="#SVGID_27_"  style="overflow:visible;"/>
							</clipPath>
							<path class="st17" d="M86.8,51.6c0-3.4-2.8-6.2-6.2-6.2c-3.4,0-6.2,2.8-6.2,6.2c0,3.4,2.8,6.2,6.2,6.2S86.8,55,86.8,51.6"/>
						</g>
					</g>
				</g>
				<path class="st3" d="M39.8,36.5c0-3.4-2.8-6.2-6.2-6.2s-6.2,2.8-6.2,6.2c0,3.4,2.8,6.2,6.2,6.2C37,42.7,39.8,39.9,39.8,36.5"/>
				<path class="st3" d="M71.1,36.5c0-3.4-2.8-6.2-6.2-6.2c-3.4,0-6.2,2.8-6.2,6.2c0,3.4,2.8,6.2,6.2,6.2
					C68.3,42.7,71.1,39.9,71.1,36.5"/>
				<g class="st4">
					<g>
						<g>
							<defs>
								<rect id="SVGID_29_" x="43" y="30.2" width="12.5" height="12.5"/>
							</defs>
							<clipPath id="SVGID_30_">
								<use xlink:href="#SVGID_29_"  style="overflow:visible;"/>
							</clipPath>
							<path class="st18" d="M55.5,36.5c0-3.4-2.8-6.2-6.2-6.2c-3.4,0-6.2,2.8-6.2,6.2c0,3.4,2.8,6.2,6.2,6.2S55.5,39.9,55.5,36.5"
								/>
						</g>
					</g>
				</g>
				<g class="st4">
					<g>
						<g>
							<defs>
								<rect id="SVGID_31_" x="11.7" y="30.2" width="12.5" height="12.5"/>
							</defs>
							<clipPath id="SVGID_32_">
								<use xlink:href="#SVGID_31_"  style="overflow:visible;"/>
							</clipPath>
							<path class="st19" d="M24.1,36.5c0-3.4-2.8-6.2-6.2-6.2s-6.2,2.8-6.2,6.2c0,3.4,2.8,6.2,6.2,6.2S24.1,39.9,24.1,36.5"/>
						</g>
					</g>
				</g>
				<g class="st4">
					<g>
						<g>
							<defs>
								<rect id="SVGID_33_" x="-4" y="30.2" width="12.5" height="12.5"/>
							</defs>
							<clipPath id="SVGID_34_">
								<use xlink:href="#SVGID_33_"  style="overflow:visible;"/>
							</clipPath>
							<path class="st20" d="M8.5,36.5c0-3.4-2.8-6.2-6.2-6.2s-6.2,2.8-6.2,6.2c0,3.4,2.8,6.2,6.2,6.2S8.5,39.9,8.5,36.5"/>
						</g>
					</g>
				</g>
				<g class="st4">
					<g>
						<g>
							<defs>
								<rect id="SVGID_35_" x="90" y="30.2" width="12.5" height="12.5"/>
							</defs>
							<clipPath id="SVGID_36_">
								<use xlink:href="#SVGID_35_"  style="overflow:visible;"/>
							</clipPath>
							<path class="st21" d="M102.5,36.5c0-3.4-2.8-6.2-6.2-6.2c-3.4,0-6.2,2.8-6.2,6.2c0,3.4,2.8,6.2,6.2,6.2
								S102.5,39.9,102.5,36.5"/>
						</g>
					</g>
				</g>
				<g class="st4">
					<g>
						<g>
							<defs>
								<rect id="SVGID_37_" x="74.3" y="30.2" width="12.5" height="12.5"/>
							</defs>
							<clipPath id="SVGID_38_">
								<use xlink:href="#SVGID_37_"  style="overflow:visible;"/>
							</clipPath>
							<path class="st22" d="M86.8,36.5c0-3.4-2.8-6.2-6.2-6.2c-3.4,0-6.2,2.8-6.2,6.2c0,3.4,2.8,6.2,6.2,6.2S86.8,39.9,86.8,36.5"
								/>
						</g>
					</g>
				</g>
				<path class="st3" d="M39.8,21.3c0-3.4-2.8-6.2-6.2-6.2s-6.2,2.8-6.2,6.2c0,3.4,2.8,6.2,6.2,6.2C37,27.6,39.8,24.8,39.8,21.3"/>
				<path class="st3" d="M71.1,21.3c0-3.4-2.8-6.2-6.2-6.2c-3.4,0-6.2,2.8-6.2,6.2c0,3.4,2.8,6.2,6.2,6.2
					C68.3,27.6,71.1,24.8,71.1,21.3"/>
				<path class="st3" d="M55.5,21.3c0-3.4-2.8-6.2-6.2-6.2c-3.4,0-6.2,2.8-6.2,6.2c0,3.4,2.8,6.2,6.2,6.2
					C52.7,27.6,55.5,24.8,55.5,21.3"/>
				<path class="st3" d="M24.1,21.3c0-3.4-2.8-6.2-6.2-6.2s-6.2,2.8-6.2,6.2c0,3.4,2.8,6.2,6.2,6.2C21.3,27.6,24.1,24.8,24.1,21.3"
					/>
				<g class="st4">
					<g>
						<g>
							<defs>
								<rect id="SVGID_39_" x="-4" y="15.1" width="12.5" height="12.5"/>
							</defs>
							<clipPath id="SVGID_40_">
								<use xlink:href="#SVGID_39_"  style="overflow:visible;"/>
							</clipPath>
							<path class="st23" d="M8.5,21.3c0-3.4-2.8-6.2-6.2-6.2s-6.2,2.8-6.2,6.2c0,3.4,2.8,6.2,6.2,6.2C5.7,27.6,8.5,24.8,8.5,21.3"
								/>
						</g>
					</g>
				</g>
				<g class="st4">
					<g>
						<g>
							<defs>
								<rect id="SVGID_41_" x="90" y="15.1" width="12.5" height="12.5"/>
							</defs>
							<clipPath id="SVGID_42_">
								<use xlink:href="#SVGID_41_"  style="overflow:visible;"/>
							</clipPath>
							<path class="st24" d="M102.5,21.3c0-3.4-2.8-6.2-6.2-6.2c-3.4,0-6.2,2.8-6.2,6.2c0,3.4,2.8,6.2,6.2,6.2
								C99.7,27.6,102.5,24.8,102.5,21.3"/>
						</g>
					</g>
				</g>
				<g class="st4">
					<g>
						<g>
							<defs>
								<rect id="SVGID_43_" x="74.3" y="15.1" width="12.5" height="12.5"/>
							</defs>
							<clipPath id="SVGID_44_">
								<use xlink:href="#SVGID_43_"  style="overflow:visible;"/>
							</clipPath>
							<path class="st25" d="M86.8,21.3c0-3.4-2.8-6.2-6.2-6.2c-3.4,0-6.2,2.8-6.2,6.2c0,3.4,2.8,6.2,6.2,6.2
								C84,27.6,86.8,24.8,86.8,21.3"/>
						</g>
					</g>
				</g>
				<g class="st4">
					<g>
						<g>
							<defs>
								<rect id="SVGID_45_" x="27.3" width="12.5" height="12.5"/>
							</defs>
							<clipPath id="SVGID_46_">
								<use xlink:href="#SVGID_45_"  style="overflow:visible;"/>
							</clipPath>
							<path class="st26" d="M39.8,6.2C39.8,2.8,37,0,33.6,0s-6.2,2.8-6.2,6.2c0,3.4,2.8,6.2,6.2,6.2C37,12.4,39.8,9.6,39.8,6.2"/>
						</g>
					</g>
				</g>
				<g class="st4">
					<g>
						<g>
							<defs>
								<rect id="SVGID_47_" x="58.7" width="12.5" height="12.5"/>
							</defs>
							<clipPath id="SVGID_48_">
								<use xlink:href="#SVGID_47_"  style="overflow:visible;"/>
							</clipPath>
							<path class="st27" d="M71.1,6.2c0-3.4-2.8-6.2-6.2-6.2c-3.4,0-6.2,2.8-6.2,6.2c0,3.4,2.8,6.2,6.2,6.2
								C68.3,12.4,71.1,9.6,71.1,6.2"/>
						</g>
					</g>
				</g>
				<g class="st4">
					<g>
						<g>
							<defs>
								<rect id="SVGID_49_" x="43" width="12.5" height="12.5"/>
							</defs>
							<clipPath id="SVGID_50_">
								<use xlink:href="#SVGID_49_"  style="overflow:visible;"/>
							</clipPath>
							<path class="st28" d="M55.5,6.2c0-3.4-2.8-6.2-6.2-6.2c-3.4,0-6.2,2.8-6.2,6.2c0,3.4,2.8,6.2,6.2,6.2
								C52.7,12.4,55.5,9.6,55.5,6.2"/>
						</g>
					</g>
				</g>
				<g class="st4">
					<g>
						<g>
							<defs>
								<rect id="SVGID_51_" x="11.7" width="12.5" height="12.5"/>
							</defs>
							<clipPath id="SVGID_52_">
								<use xlink:href="#SVGID_51_"  style="overflow:visible;"/>
							</clipPath>
							<path class="st29" d="M24.1,6.2c0-3.4-2.8-6.2-6.2-6.2s-6.2,2.8-6.2,6.2c0,3.4,2.8,6.2,6.2,6.2C21.3,12.4,24.1,9.6,24.1,6.2"
								/>
						</g>
					</g>
				</g>
				<g class="st4">
					<g>
						<g>
							<defs>
								<rect id="SVGID_53_" x="-4" width="12.5" height="12.5"/>
							</defs>
							<clipPath id="SVGID_54_">
								<use xlink:href="#SVGID_53_"  style="overflow:visible;"/>
							</clipPath>
							<path class="st30" d="M8.5,6.2C8.5,2.8,5.7,0,2.3,0s-6.2,2.8-6.2,6.2c0,3.4,2.8,6.2,6.2,6.2C5.7,12.4,8.5,9.6,8.5,6.2"/>
						</g>
					</g>
				</g>
				<g class="st4">
					<g>
						<g>
							<defs>
								<rect id="SVGID_55_" x="90" width="12.5" height="12.5"/>
							</defs>
							<clipPath id="SVGID_56_">
								<use xlink:href="#SVGID_55_"  style="overflow:visible;"/>
							</clipPath>
							<path class="st31" d="M102.5,6.2c0-3.4-2.8-6.2-6.2-6.2c-3.4,0-6.2,2.8-6.2,6.2c0,3.4,2.8,6.2,6.2,6.2
								C99.7,12.4,102.5,9.6,102.5,6.2"/>
						</g>
					</g>
				</g>
				<g class="st4">
					<g>
						<g>
							<defs>
								<rect id="SVGID_57_" x="74.3" width="12.5" height="12.5"/>
							</defs>
							<clipPath id="SVGID_58_">
								<use xlink:href="#SVGID_57_"  style="overflow:visible;"/>
							</clipPath>
							<path class="st32" d="M86.8,6.2C86.8,2.8,84,0,80.6,0c-3.4,0-6.2,2.8-6.2,6.2c0,3.4,2.8,6.2,6.2,6.2
								C84,12.4,86.8,9.6,86.8,6.2"/>
						</g>
					</g>
				</g>
				<g class="st4">
					<g>
						<g>
							<defs>
								<rect id="SVGID_59_" x="27.3" y="90.5" width="12.5" height="12.5"/>
							</defs>
							<clipPath id="SVGID_60_">
								<use xlink:href="#SVGID_59_"  style="overflow:visible;"/>
							</clipPath>
							<path class="st33" d="M39.8,96.8c0-3.4-2.8-6.2-6.2-6.2s-6.2,2.8-6.2,6.2s2.8,6.2,6.2,6.2C37,103,39.8,100.2,39.8,96.8"/>
						</g>
					</g>
				</g>
				<g class="st4">
					<g>
						<g>
							<defs>
								<rect id="SVGID_61_" x="58.7" y="90.5" width="12.5" height="12.5"/>
							</defs>
							<clipPath id="SVGID_62_">
								<use xlink:href="#SVGID_61_"  style="overflow:visible;"/>
							</clipPath>
							<path class="st34" d="M71.1,96.8c0-3.4-2.8-6.2-6.2-6.2c-3.4,0-6.2,2.8-6.2,6.2s2.8,6.2,6.2,6.2
								C68.3,103,71.1,100.2,71.1,96.8"/>
						</g>
					</g>
				</g>
				<g class="st4">
					<g>
						<g>
							<defs>
								<rect id="SVGID_63_" x="43" y="90.5" width="12.5" height="12.5"/>
							</defs>
							<clipPath id="SVGID_64_">
								<use xlink:href="#SVGID_63_"  style="overflow:visible;"/>
							</clipPath>
							<path class="st35" d="M55.5,96.8c0-3.4-2.8-6.2-6.2-6.2c-3.4,0-6.2,2.8-6.2,6.2s2.8,6.2,6.2,6.2
								C52.7,103,55.5,100.2,55.5,96.8"/>
						</g>
					</g>
				</g>
				<g class="st4">
					<g>
						<g>
							<defs>
								<rect id="SVGID_65_" x="11.7" y="90.5" width="12.5" height="12.5"/>
							</defs>
							<clipPath id="SVGID_66_">
								<use xlink:href="#SVGID_65_"  style="overflow:visible;"/>
							</clipPath>
							<path class="st36" d="M24.1,96.8c0-3.4-2.8-6.2-6.2-6.2s-6.2,2.8-6.2,6.2s2.8,6.2,6.2,6.2C21.3,103,24.1,100.2,24.1,96.8"/>
						</g>
					</g>
				</g>
				<g class="st4">
					<g>
						<g>
							<defs>
								<rect id="SVGID_67_" x="-4" y="90.5" width="12.5" height="12.5"/>
							</defs>
							<clipPath id="SVGID_68_">
								<use xlink:href="#SVGID_67_"  style="overflow:visible;"/>
							</clipPath>
							<path class="st37" d="M8.5,96.8c0-3.4-2.8-6.2-6.2-6.2s-6.2,2.8-6.2,6.2s2.8,6.2,6.2,6.2C5.7,103,8.5,100.2,8.5,96.8"/>
						</g>
					</g>
				</g>
				<g class="st4">
					<g>
						<g>
							<defs>
								<rect id="SVGID_69_" x="90" y="90.5" width="12.5" height="12.5"/>
							</defs>
							<clipPath id="SVGID_70_">
								<use xlink:href="#SVGID_69_"  style="overflow:visible;"/>
							</clipPath>
							<path class="st38" d="M102.5,96.8c0-3.4-2.8-6.2-6.2-6.2c-3.4,0-6.2,2.8-6.2,6.2s2.8,6.2,6.2,6.2
								C99.7,103,102.5,100.2,102.5,96.8"/>
						</g>
					</g>
				</g>
				<g class="st4">
					<g>
						<g>
							<defs>
								<rect id="SVGID_71_" x="74.3" y="90.5" width="12.5" height="12.5"/>
							</defs>
							<clipPath id="SVGID_72_">
								<use xlink:href="#SVGID_71_"  style="overflow:visible;"/>
							</clipPath>
							<path class="st39" d="M86.8,96.8c0-3.4-2.8-6.2-6.2-6.2c-3.4,0-6.2,2.8-6.2,6.2s2.8,6.2,6.2,6.2C84,103,86.8,100.2,86.8,96.8
								"/>
						</g>
					</g>
				</g>
				<g class="st4">
					<g>
						<g>
							<defs>
								<rect id="SVGID_73_" x="27.3" y="15.1" width="12.5" height="73"/>
							</defs>
							<clipPath id="SVGID_74_">
								<use xlink:href="#SVGID_73_"  style="overflow:visible;"/>
							</clipPath>
							<rect x="27.3" y="15.1" class="st40" width="12.5" height="73"/>
						</g>
					</g>
				</g>
				<g class="st4">
					<g>
						<g>
							<defs>
								<rect id="SVGID_75_" x="58.6" y="15.1" width="12.5" height="73"/>
							</defs>
							<clipPath id="SVGID_76_">
								<use xlink:href="#SVGID_75_"  style="overflow:visible;"/>
							</clipPath>
							<rect x="58.6" y="15.1" class="st41" width="12.5" height="73"/>
						</g>
					</g>
				</g>
				<g class="st4">
					<g>
						<g>
							<defs>
								<rect id="SVGID_77_" x="11.7" y="15.1" width="43.8" height="12.5"/>
							</defs>
							<clipPath id="SVGID_78_">
								<use xlink:href="#SVGID_77_"  style="overflow:visible;"/>
							</clipPath>
							<rect x="11.7" y="15.1" class="st42" width="43.8" height="12.5"/>
						</g>
					</g>
				</g>
				<g class="st4">
					<g>
						<g>
							<defs>
								<rect id="SVGID_79_" x="58.7" y="75.6" width="43.5" height="12.5"/>
							</defs>
							<clipPath id="SVGID_80_">
								<use xlink:href="#SVGID_79_"  style="overflow:visible;"/>
							</clipPath>
							<rect x="58.7" y="75.6" class="st43" width="43.5" height="12.5"/>
						</g>
					</g>
				</g>
			</g>
		</g>
	</g>
</g>
</svg>
