<svg xmlns="http://www.w3.org/2000/svg" viewBox="0 0 1513.58 512"><defs><style>.cls-1,.cls-3{fill:#58595b;}.cls-2{fill:#ef4035;}.cls-3{opacity:0.1;}</style></defs><g id="Layer_2" data-name="Layer 2"><g id="Layer_1-2" data-name="Layer 1"><path class="cls-1" d="M755.55,404q-17.2-.54-37.07-1.07t-37.07-.54q-17.2,0-37.61.54t-36,1.07q-.54-2.69-.81-5.1a46,46,0,0,1-.27-5.11q0-4.83,1.35-6.72c.88-1.24,2.59-2.23,5.1-2.95l11.28-2.69a16,16,0,0,0,7.25-3.22c1.62-1.43,2.78-3.85,3.5-7.25a82,82,0,0,0,1.34-13.43q.26-8.32.27-21.76V252a153.25,153.25,0,0,0-1.34-20.15,36.19,36.19,0,0,0-7.79-18q-11.84-15-33.85-15a50.42,50.42,0,0,0-17.46,2.69,76.1,76.1,0,0,0-12.63,5.91,11.72,11.72,0,0,0-5.1,5.1q-1.35,3-1.34,11.56V335.77q0,13.44.27,21.76A78.78,78.78,0,0,0,558.92,371q1.08,5.1,3.49,7.25a16,16,0,0,0,7.25,3.22L581,384.12c2.5.72,4.2,1.71,5.1,2.95s1.35,3.5,1.35,6.72a48.55,48.55,0,0,1-.27,5.11q-.28,2.42-.81,5.1-15.59-.54-36-1.07t-37.06-.54q-17.73,0-37.61.54T438,404c-.36-1.79-.63-3.49-.8-5.1a43.7,43.7,0,0,1-.27-5.11c0-3.22.35-5.46,1.07-6.72s2.5-2.23,5.37-2.95l16.12-3.22q9.14-2.14,10.75-11.28t1.61-33.85V91.86q0-19.86-1.61-26.59t-8.6-11l-15.58-8.6a45.1,45.1,0,0,1-4.83-3.75c-.73-.72-1.08-2.69-1.08-5.91a46.81,46.81,0,0,1,1.08-9.14Q452,25.8,465.71,23.64a287,287,0,0,0,34.12-8.06A325.11,325.11,0,0,0,530.71,5.37Q544.42,0,553,0c2.5,0,4.3.54,5.37,1.61q-.54,20.43-.8,37.88t-.27,35.19V180.51c.71.72,2.15,1.08,4.3,1.08a212.7,212.7,0,0,1,37.6-24.45q18.81-9.39,45.13-9.4a102.38,102.38,0,0,1,32,4.83,74.38,74.38,0,0,1,27.12,16.12,50.79,50.79,0,0,1,10.75,15.58,78.77,78.77,0,0,1,5.37,17.46,116.62,116.62,0,0,1,1.88,17.19q.27,8.34.27,15.31V335.77q0,24.72,1.62,33.85t10.74,11.28l16.12,3.22c2.86.72,4.65,1.71,5.37,2.95s1.08,3.5,1.08,6.72a48.55,48.55,0,0,1-.27,5.11Q756.08,401.32,755.55,404Z"/><path class="cls-1" d="M1099.37,404q-17.19-.54-37.33-1.07t-37.88-.54q-16.65,0-37.34.54T950.56,404q-.54-2.69-.81-5.1a46,46,0,0,1-.27-5.11q0-4.83,1.35-6.72c.89-1.24,2.59-2.23,5.1-2.95l12.36-2.69a16,16,0,0,0,7.25-3.22Q978,376.06,979,371a80.73,80.73,0,0,0,1.35-13.43q.27-8.32.27-21.76V252a186.83,186.83,0,0,0-1.08-20.15,30.86,30.86,0,0,0-8.6-18q-12.88-15-36-15a57,57,0,0,0-18.54,2.69,91.25,91.25,0,0,0-13.7,5.91q-4.29,2.16-5.37,5.1T896.3,224V335.77q0,13.44.27,21.76A78.78,78.78,0,0,0,897.91,371q1.08,5.1,3.49,7.25a16,16,0,0,0,7.25,3.22L921,384.12c2.49.72,4.2,1.71,5.1,2.95s1.34,3.5,1.34,6.72a46,46,0,0,1-.27,5.11c-.19,1.61-.45,3.31-.8,5.1q-15.6-.54-36-1.07t-37.6-.54q-17.74,0-37.88.54T777,404c-.36-1.79-.63-3.49-.8-5.1a43.7,43.7,0,0,1-.27-5.11c0-3.22.35-5.46,1.07-6.72s2.5-2.23,5.37-2.95l16.12-3.22q9.13-2.14,10.75-11.28t1.61-33.85v-116c0-6.09-.45-10.38-1.34-12.9s-3-4.65-6.18-6.44l-18.27-10.21a44.74,44.74,0,0,1-4.83-3.76c-.73-.72-1.08-2.86-1.08-6.45a45.27,45.27,0,0,1,1.08-8.6q10.72-1.05,24.44-3.48a265.67,265.67,0,0,0,32.5-8.33,305.21,305.21,0,0,0,30.62-10.21q13.42-5.37,21-5.38,4.29,0,5.37,1.62l-1.07,36c.71.72,2.32,1.07,4.83,1.07a206.37,206.37,0,0,1,39.49-25q20.67-9.91,48.62-9.93a108.64,108.64,0,0,1,33.31,4.83,74.16,74.16,0,0,1,27.4,16.12,50.5,50.5,0,0,1,11.54,15.58,71.42,71.42,0,0,1,5.64,17.19,113,113,0,0,1,1.89,17.19c.17,5.74.27,10.93.27,15.58V335.77q0,24.72,1.61,33.85t10.74,11.28l16.12,3.22q5.91,1.08,5.91,9.67a46,46,0,0,1-.27,5.11Q1099.91,401.32,1099.37,404Z"/><path class="cls-1" d="M1308.36,360.48a9.23,9.23,0,0,1,1.88,3.23,41.1,41.1,0,0,0,1.88,4.29,18.11,18.11,0,0,1,.8,9.14q-.81,4.31-7.78,8.59-12.9,9.15-34.65,17.73t-48.63,8.6q-22,0-36.53-5.65t-23.1-16.65a65.86,65.86,0,0,1-12.08-26.59,165,165,0,0,1-3.5-36V208.45c0-6.09-.54-10-1.61-11.82s-2.87-2.69-5.37-2.69h-12.9q-4.83,0-6.44-4.83a41.46,41.46,0,0,1-1.08-4,19,19,0,0,1-.54-4q13.43-10.2,26.86-22.57t26.06-25q12.61-12.61,23.91-25t20.42-22a10.92,10.92,0,0,1,8.06-3.22,14.31,14.31,0,0,1,8.59,3.22q-.54,16.67-.54,34.12t-.53,33c.35,1.07,1.6,2.33,3.76,3.76h68.76q2.68,1.08,3.22,5.37a106.47,106.47,0,0,1,.54,12.36,122.82,122.82,0,0,1-.54,12.62q-.54,5.12-3.22,6.18h-69.3a6.36,6.36,0,0,0-3.22,3.76V325q0,24.17,9.93,33.31t31.43,9.13a92.79,92.79,0,0,0,19.61-2.15A80,80,0,0,0,1308.36,360.48Z"/><path class="cls-1" d="M1513.58,323.42q0,22-9.4,38.67a84.13,84.13,0,0,1-25,27.67,114.16,114.16,0,0,1-36,16.65,158.32,158.32,0,0,1-42.44,5.65,198.29,198.29,0,0,1-37.87-3.5q-18-3.49-29.82-9.4,0-4.83-.27-14.77t-.54-20.41q-.27-10.49-.54-19.34c-.18-5.92-.26-10.12-.26-12.63,1.79-.35,3.49-.62,5.1-.8a46,46,0,0,1,5.11-.27c3.22,0,5.54.45,7,1.34s2.5,2.78,3.22,5.64q5.37,22,18.27,32.5t36,10.48q16.13,0,26.86-7t10.75-22.56a25.11,25.11,0,0,0-7.79-18.81,90.94,90.94,0,0,0-19.61-14q-11.82-6.45-25.52-13.44a133.42,133.42,0,0,1-25.52-16.91,85,85,0,0,1-19.61-23.91q-7.79-14-7.79-35.46,0-20.42,8.6-35.73a76.42,76.42,0,0,1,22.57-25.24,102.32,102.32,0,0,1,32.5-15,142.06,142.06,0,0,1,37.87-5.1,163.82,163.82,0,0,1,36,3.76q16.63,3.76,27.4,8.59c0,3.95.08,8.6.27,14s.34,10.84.53,16.39.35,10.74.54,15.58.27,8.51.27,11c-1.8.37-3.32.63-4.57.8a31.44,31.44,0,0,1-4.57.27q-5.37,0-7.25-1.33c-1.26-.9-2.24-2.6-3-5.11q-8.6-32.76-48.88-32.77-16.12,0-23.91,6.71a22,22,0,0,0-7.79,17.47q0,10.2,8.06,17.45a108.94,108.94,0,0,0,20.14,14q12.09,6.74,26.33,13.7a134.89,134.89,0,0,1,26.32,16.92A87,87,0,0,1,1505.52,289Q1513.59,303,1513.58,323.42Z"/><path class="cls-2" d="M489.75,493.44l-5.43-.13c-1.92-.05-3.68-.07-5.3-.07s-3.48,0-5.43.07l-5.57.13c0-.23-.1-.44-.14-.64a3.3,3.3,0,0,1-.07-.64c0-.77.3-1.22.88-1.35l2.43-.41a1.68,1.68,0,0,0,1-.4,1.85,1.85,0,0,0,.5-1.05,10.93,10.93,0,0,0,.17-1.89c0-.79,0-1.77,0-2.94V472.18a1.08,1.08,0,0,0-.34-.41h-18a.88.88,0,0,0-.41.41v11.94c0,1.17,0,2.14,0,2.91a12,12,0,0,0,.16,1.85,2,2,0,0,0,.51,1.08,1.57,1.57,0,0,0,1,.44l2.43.41a1,1,0,0,1,.68.4,2.56,2.56,0,0,1,.13,1,4.4,4.4,0,0,1,0,.64c0,.2-.05.41-.09.64l-5.47-.13c-1.89-.05-3.67-.07-5.34-.07s-3.47,0-5.43.07l-5.57.13c0-.23-.08-.44-.1-.64s0-.42,0-.64a2.36,2.36,0,0,1,.13-1,1,1,0,0,1,.68-.4l2.43-.41a1.71,1.71,0,0,0,1-.4,2.17,2.17,0,0,0,.54-1.05,9.65,9.65,0,0,0,.2-1.89q0-1.19,0-2.94v-27.6a32.83,32.83,0,0,0-.23-4.79,1.7,1.7,0,0,0-1.52-1.49l-2.43-.4a1,1,0,0,1-.68-.41,2.08,2.08,0,0,1-.13-.87c0-.23,0-.46,0-.68s.06-.45.1-.68l5.5.14c1.92.05,3.68.07,5.3.07s3.48,0,5.44-.07l5.57-.14c0,.23.07.45.09.68a5.07,5.07,0,0,1,0,.68,2.26,2.26,0,0,1-.13.87,1,1,0,0,1-.68.41l-2.43.4a2.19,2.19,0,0,0-1,.47,1.86,1.86,0,0,0-.51,1.05,12,12,0,0,0-.16,1.86c0,.76,0,1.73,0,2.9v9.85a.84.84,0,0,0,.41.48h18a1.38,1.38,0,0,0,.34-.48v-9.85c0-1.17,0-2.14,0-2.9a10.74,10.74,0,0,0-.17-1.86,1.85,1.85,0,0,0-.5-1.05,2.14,2.14,0,0,0-1-.47l-2.43-.4a1.15,1.15,0,0,1-.88-1.28,3.82,3.82,0,0,1,.07-.68c0-.23.09-.45.14-.68l5.46.14c1.89.05,3.67.07,5.33.07s3.48,0,5.44-.07l5.5-.14c0,.23.09.45.13.68a3.08,3.08,0,0,1,.07.68c0,.71-.27,1.14-.81,1.28l-2.43.4a2,2,0,0,0-1,.47,2.24,2.24,0,0,0-.51,1.05,9.49,9.49,0,0,0-.2,1.86c0,.76,0,1.73,0,2.9v27.6q0,1.75,0,2.91a9.47,9.47,0,0,0,.2,1.85,2.37,2.37,0,0,0,.51,1.08,1.47,1.47,0,0,0,1,.44l2.43.41q.81.19.81,1.35a2.67,2.67,0,0,1-.07.64C489.84,493,489.79,493.21,489.75,493.44Z"/><path class="cls-2" d="M529.1,477.65a18,18,0,0,1-1.25,6.75,15.36,15.36,0,0,1-3.54,5.33,16.19,16.19,0,0,1-5.57,3.47,20.28,20.28,0,0,1-7.33,1.25,23.05,23.05,0,0,1-7.42-1.14,17.1,17.1,0,0,1-5.81-3.28,14.53,14.53,0,0,1-3.74-5.16,17,17,0,0,1-1.32-6.82,18.37,18.37,0,0,1,1.22-6.75,14.84,14.84,0,0,1,3.51-5.33,16.12,16.12,0,0,1,5.57-3.48,20.63,20.63,0,0,1,7.39-1.25,23,23,0,0,1,7.42,1.15,16.63,16.63,0,0,1,5.77,3.28,14.74,14.74,0,0,1,3.75,5.16A16.61,16.61,0,0,1,529.1,477.65Zm-11.61.26a29.76,29.76,0,0,0-.37-4.75,16.12,16.12,0,0,0-1.18-4.12,8.56,8.56,0,0,0-2.06-2.9,4.31,4.31,0,0,0-3-1.12,4.56,4.56,0,0,0-3.11,1.08,7.16,7.16,0,0,0-1.89,2.84A16,16,0,0,0,505,473a46.39,46.39,0,0,0-.24,4.76,30,30,0,0,0,.38,4.76,16,16,0,0,0,1.18,4.12,8.73,8.73,0,0,0,2,2.9,4.24,4.24,0,0,0,3,1.11,4.64,4.64,0,0,0,3.11-1,7,7,0,0,0,1.89-2.84,17.74,17.74,0,0,0,.94-4.08A41.09,41.09,0,0,0,517.49,477.91Z"/><path class="cls-2" d="M592.55,493.44l-4.66-.13c-1.67-.05-3.22-.07-4.66-.07s-3,0-4.72.07-3.22.08-4.53.13c0-.23-.08-.44-.1-.64s0-.42,0-.64a1.48,1.48,0,0,1,.17-.85,1.11,1.11,0,0,1,.64-.37l1.42-.33a2.2,2.2,0,0,0,.91-.41,1.65,1.65,0,0,0,.44-.91,11.14,11.14,0,0,0,.16-1.69c0-.7,0-1.61,0-2.73V474.34a19.2,19.2,0,0,0-.17-2.53,4.46,4.46,0,0,0-1-2.26,5.09,5.09,0,0,0-4.25-1.89A6.39,6.39,0,0,0,570,468a9.85,9.85,0,0,0-1.59.75,1.69,1.69,0,0,0-.68.64,3.55,3.55,0,0,0-.2,1.45v14c0,1.12,0,2,0,2.73a10,10,0,0,0,.16,1.69,1.65,1.65,0,0,0,.44.91,2.2,2.2,0,0,0,.91.41l1.49.33c.49.09.74.5.74,1.22,0,.22,0,.44,0,.64s-.06.41-.1.64c-1.31-.05-2.77-.09-4.39-.13s-3.15-.07-4.59-.07-3,0-4.59.07-3.08.08-4.39.13c0-.23-.08-.44-.1-.64s0-.42,0-.64a1.48,1.48,0,0,1,.17-.85,1.11,1.11,0,0,1,.64-.37l1.41-.33a2.19,2.19,0,0,0,.92-.41,1.65,1.65,0,0,0,.43-.91,9.83,9.83,0,0,0,.17-1.69c0-.7,0-1.61,0-2.73V474.34a19.2,19.2,0,0,0-.17-2.53,4.46,4.46,0,0,0-1-2.26,5.09,5.09,0,0,0-4.25-1.89,6.49,6.49,0,0,0-2.2.33,10.14,10.14,0,0,0-1.58.75,1.41,1.41,0,0,0-.64.64,3.9,3.9,0,0,0-.17,1.45v14q0,1.68,0,2.73a9.83,9.83,0,0,0,.17,1.69,1.65,1.65,0,0,0,.44.91,2.09,2.09,0,0,0,.91.41l1.42.33a1.14,1.14,0,0,1,.64.37,1.57,1.57,0,0,1,.17.85c0,.22,0,.44,0,.64a5.59,5.59,0,0,1-.1.64c-1.3-.05-2.81-.09-4.52-.13s-3.26-.07-4.66-.07-3.06,0-4.72.07l-4.73.13c0-.23-.07-.44-.1-.64s0-.42,0-.64a1.89,1.89,0,0,1,.13-.85,1,1,0,0,1,.68-.37l2-.4a1.63,1.63,0,0,0,1.35-1.42,28.1,28.1,0,0,0,.21-4.25V470.29a5.41,5.41,0,0,0-.17-1.62,1.59,1.59,0,0,0-.78-.81L533,466.57a5,5,0,0,1-.61-.47c-.09-.09-.14-.35-.14-.81a5.89,5.89,0,0,1,.14-1.08c.9-.09,1.92-.23,3.07-.43a35.31,35.31,0,0,0,4.08-1,40.33,40.33,0,0,0,3.85-1.28,7.71,7.71,0,0,1,2.63-.68c.36,0,.59.07.68.2l-.14,4.53a.92.92,0,0,0,.61.13,28,28,0,0,1,4.83-3.14,14.13,14.13,0,0,1,9.92-.64,9.57,9.57,0,0,1,3.41,2,9,9,0,0,1,1.41,2,1.37,1.37,0,0,0,.61.14,37.82,37.82,0,0,1,5.23-3.41,12.7,12.7,0,0,1,6-1.39,13,13,0,0,1,4,.61,9.49,9.49,0,0,1,3.41,2,6.61,6.61,0,0,1,1.35,2A9.94,9.94,0,0,1,588,468a13.73,13.73,0,0,1,.24,2.16q0,1.05,0,1.92v12.76a30,30,0,0,0,.2,4.25,1.65,1.65,0,0,0,1.36,1.42l2,.4a1.07,1.07,0,0,1,.68.37,2,2,0,0,1,.13.85c0,.22,0,.44,0,.64S592.59,493.21,592.55,493.44Z"/><path class="cls-2" d="M622.58,485.61l.47.34a3.92,3.92,0,0,1,.47.4,2.42,2.42,0,0,1,.48.95c0,.27-.23.7-.81,1.28a18.72,18.72,0,0,1-5.67,4.35,15.53,15.53,0,0,1-7,1.52,15.28,15.28,0,0,1-6.34-1.28,14.58,14.58,0,0,1-4.86-3.54,16.33,16.33,0,0,1-3.14-5.27,18.44,18.44,0,0,1-1.11-6.45,18.16,18.16,0,0,1,1.18-6.58,15.41,15.41,0,0,1,8.47-8.8,16.26,16.26,0,0,1,6.55-1.29,14.1,14.1,0,0,1,9.38,3.07q3.64,3.07,3.78,9.22a2.59,2.59,0,0,1-.17.74,1.64,1.64,0,0,1-.44.47h-19a.63.63,0,0,0-.34.41,3.94,3.94,0,0,1,0,.4,2.88,2.88,0,0,0,0,.47,10.84,10.84,0,0,0,.88,4.26,12.56,12.56,0,0,0,2.46,3.78,12.84,12.84,0,0,0,3.75,2.73,10.64,10.64,0,0,0,4.72,1,8.79,8.79,0,0,0,3.34-.65A14.29,14.29,0,0,0,622.58,485.61ZM610,464.55c-2.88,0-4.6,2.16-5.13,6.48a.69.69,0,0,0,.27.41l8.64-.14a1.19,1.19,0,0,0,.33-.61,8.6,8.6,0,0,0-.77-4.32A3.41,3.41,0,0,0,610,464.55Z"/><path class="cls-2" d="M690.48,493.78c-.72.09-1.76.14-3.1.17l-4,0a1.58,1.58,0,0,1-1.28-.74l-1.55-2.16c-.68-.95-1.53-2-2.57-3.24L655.58,461h-.13l.27,15.66c0,2.66.14,4.84.27,6.55a23.14,23.14,0,0,0,.61,4.08,4.49,4.49,0,0,0,1.14,2.2,3.73,3.73,0,0,0,2,.87l2.9.48q.81.19.81,1.35a3.31,3.31,0,0,1-.06.64c-.05.2-.1.41-.14.64l-4.76-.13c-1.46-.05-3-.07-4.69-.07s-3.16,0-4.62.07l-4.76.13c0-.23-.09-.44-.14-.64a3.31,3.31,0,0,1-.06-.64q0-1.16.87-1.35l2.37-.41a2.32,2.32,0,0,0,1.38-.67,4,4,0,0,0,.81-1.83,19.42,19.42,0,0,0,.41-3.37c.06-1.39.1-3.17.1-5.33V456.65a12.41,12.41,0,0,0-.24-2.59,4.83,4.83,0,0,0-.91-2,4.59,4.59,0,0,0-1.52-1.25,5.84,5.84,0,0,0-1.72-.51l-1.82-.27a1.08,1.08,0,0,1-.71-.41,1.77,1.77,0,0,1-.17-.94,3.56,3.56,0,0,1,.07-.71c0-.25.09-.48.13-.71,1.62.09,3.1.15,4.42.17s2.69,0,4.09,0c1.62,0,3.12,0,4.52,0s2.83-.08,4.32-.17a1.54,1.54,0,0,1,.74.34c.63,1,1.48,2.22,2.53,3.68s2.24,3,3.55,4.55l16.87,20.39h.13l-.13-12.15c-.09-2.65-.19-4.84-.31-6.55a20,20,0,0,0-.6-4.08,4.86,4.86,0,0,0-1.15-2.19,3.44,3.44,0,0,0-1.92-.88l-2.91-.48c-.58-.13-.87-.58-.87-1.34a3.42,3.42,0,0,1,.06-.65c0-.2.09-.41.14-.64l4.76.14c1.46,0,3,.06,4.76.06s3.15,0,4.59-.06l4.72-.14c0,.23.09.44.14.64a3.42,3.42,0,0,1,.06.65c0,.76-.29,1.21-.87,1.34l-2.3.41a2.41,2.41,0,0,0-1.42.71,4,4,0,0,0-.84,1.82,18.12,18.12,0,0,0-.4,3.34c-.07,1.4-.11,3.17-.11,5.33v17.82q0,4.46.17,8.34A58.36,58.36,0,0,0,690.48,493.78Z"/><path class="cls-2" d="M711.54,494.45a13.66,13.66,0,0,1-4-.57,8.68,8.68,0,0,1-3.41-2.06,6.75,6.75,0,0,1-1.35-1.93,9.09,9.09,0,0,1-.67-2.15,14.09,14.09,0,0,1-.24-2.2q0-1.08,0-2v-12.7a22.1,22.1,0,0,0-.14-3,1.2,1.2,0,0,0-1-1l-1.42-.41c-.36-.09-.57-.21-.64-.37a2.92,2.92,0,0,1-.1-.91,4,4,0,0,1,0-.58q0-.3,0-.57c.9-.09,1.88-.2,2.93-.34s2.4-.38,4-.74,2.92-.66,3.92-.91a10.4,10.4,0,0,1,2.49-.37c.36,0,.59.07.68.2,0,1.71-.08,3.25-.1,4.63s0,2.8,0,4.28v10.6a19.31,19.31,0,0,0,.17,2.53,4.5,4.5,0,0,0,1,2.26,5.09,5.09,0,0,0,4.25,1.89,7,7,0,0,0,2.19-.3,6.54,6.54,0,0,0,1.59-.78,1.41,1.41,0,0,0,.64-.64,4.13,4.13,0,0,0,.17-1.45V471a18.6,18.6,0,0,0-.17-3,1.16,1.16,0,0,0-1-1l-2.84-.47c-.36,0-.57-.16-.64-.34a2.63,2.63,0,0,1-.1-.87,6.27,6.27,0,0,1,.13-1.22l3.45-.34c1.39-.13,2.94-.36,4.65-.67s3.1-.68,4.16-.95a10.85,10.85,0,0,1,2.59-.4,1,1,0,0,1,.68.2c-.05,1.71-.08,3.25-.1,4.63s0,2.8,0,4.28v15.05a6.16,6.16,0,0,0,.31,2.36.88.88,0,0,0,1,.61l1.89-.07a.82.82,0,0,1,.78.24,1.86,1.86,0,0,1,.24,1.11,6.6,6.6,0,0,1-.14,1.29c-.94.09-2,.24-3.24.47s-2.58.52-4.11.88l-3.85.94a12.13,12.13,0,0,1-2.57.41c-.4,0-.63-.07-.67-.21V490.2a.78.78,0,0,0-.54-.14,27.24,27.24,0,0,1-4.83,3.14A12.81,12.81,0,0,1,711.54,494.45Z"/><path class="cls-2" d="M760.88,493.44c-.77,0-1.64,0-2.6,0l-3-.06-3-.07-2.53,0c-1.49,0-3.12,0-4.9.07s-3.41.08-4.89.13a5.59,5.59,0,0,1-.1-.64c0-.2,0-.42,0-.64a1.86,1.86,0,0,1,.14-.85,1,1,0,0,1,.67-.37l2.1-.4a1.56,1.56,0,0,0,1.35-1.39,30.61,30.61,0,0,0,.2-4.28V470.42a6.19,6.19,0,0,0-.14-1.62,1.44,1.44,0,0,0-.81-.81l-2.22-1.28a4.55,4.55,0,0,1-.68-.47,1.24,1.24,0,0,1-.13-.74,5.93,5.93,0,0,1,.13-1.15c.9-.14,1.9-.29,3-.48a27.55,27.55,0,0,0,4-1,28.39,28.39,0,0,0,3.65-1.38,6.11,6.11,0,0,1,2.49-.71,1,1,0,0,1,.68.2l.13,4.73a.94.94,0,0,0,.61.13,41.86,41.86,0,0,1,4.49-3.27,9.49,9.49,0,0,1,5.1-1.32,5.24,5.24,0,0,1,3,.85,3,3,0,0,1,1.25,2.66,8.32,8.32,0,0,1-.34,2.2,11.42,11.42,0,0,1-.94,2.39,7.6,7.6,0,0,1-1.42,1.93,2.53,2.53,0,0,1-1.76.77,2.89,2.89,0,0,1-1.75-.54,17.58,17.58,0,0,1-1.49-1.21,17.66,17.66,0,0,0-1.48-1.22,2.92,2.92,0,0,0-1.76-.54,2.21,2.21,0,0,0-1.24.34,7.2,7.2,0,0,0-1.05.88,1.4,1.4,0,0,0-.54.91,7.68,7.68,0,0,0-.07,1.11v13.1a19.34,19.34,0,0,0,.31,4.28,1.59,1.59,0,0,0,1.45,1.32l3.37.47a.85.85,0,0,1,.68.34,2.1,2.1,0,0,1,.13.88c0,.22,0,.44,0,.64S760.92,493.21,760.88,493.44Z"/><path class="cls-2" d="M794.29,483.31a9.77,9.77,0,0,1-1.18,4.86,10.59,10.59,0,0,1-3.14,3.48,14.39,14.39,0,0,1-4.53,2.09,20,20,0,0,1-5.33.71,25.22,25.22,0,0,1-4.76-.44,14.47,14.47,0,0,1-3.74-1.18c0-.4,0-1,0-1.85s-.05-1.69-.07-2.57,0-1.69-.07-2.43,0-1.27,0-1.58c.23,0,.44-.08.65-.11a6.4,6.4,0,0,1,.64,0,1.8,1.8,0,0,1,.88.17,1.16,1.16,0,0,1,.4.71,7.31,7.31,0,0,0,2.3,4.08,7,7,0,0,0,4.52,1.32,6,6,0,0,0,3.37-.88,3.51,3.51,0,0,0,.37-5.2,11.25,11.25,0,0,0-2.46-1.75c-1-.54-2.06-1.1-3.21-1.69a16.5,16.5,0,0,1-3.2-2.13,10.57,10.57,0,0,1-2.46-3,10.17,10.17,0,0,1,.09-8.94,9.62,9.62,0,0,1,2.84-3.17,12.73,12.73,0,0,1,4.09-1.9,18.07,18.07,0,0,1,4.75-.64,20.31,20.31,0,0,1,4.53.48,17.79,17.79,0,0,1,3.44,1.08c0,.49,0,1.07,0,1.75s0,1.36.07,2.06,0,1.35.07,2,0,1.07,0,1.38l-.57.1a3.33,3.33,0,0,1-.58,0,1.74,1.74,0,0,1-.91-.16,1.18,1.18,0,0,1-.37-.64q-1.08-4.12-6.14-4.12a4.54,4.54,0,0,0-3,.84,2.78,2.78,0,0,0-1,2.19,2.84,2.84,0,0,0,1,2.2,13.44,13.44,0,0,0,2.53,1.75c1,.57,2.11,1.14,3.31,1.73a16.73,16.73,0,0,1,3.3,2.12,10.78,10.78,0,0,1,2.53,3A8.52,8.52,0,0,1,794.29,483.31Z"/><path class="cls-2" d="M817.37,493.44c-1.44-.05-3-.09-4.73-.13s-3.28-.07-4.72-.07-3.11,0-4.86.07-3.38.08-4.86.13a5.59,5.59,0,0,1-.1-.64c0-.2,0-.42,0-.64a1.86,1.86,0,0,1,.14-.85,1,1,0,0,1,.67-.37l2-.4a1.66,1.66,0,0,0,1.35-1.42,30,30,0,0,0,.2-4.25V471.7c0-.71,0-1.3,0-1.75a4.07,4.07,0,0,0-.17-1.08,2.4,2.4,0,0,0-.34-.68,2.57,2.57,0,0,0-.61-.53l-2.09-1.15a7.12,7.12,0,0,1-.6-.47c-.1-.09-.14-.34-.14-.75a5.31,5.31,0,0,1,.14-1.14c.9-.09,1.92-.23,3.07-.41a37.34,37.34,0,0,0,4.28-1c1.44-.41,2.74-.83,3.88-1.28a8.15,8.15,0,0,1,2.8-.68,1,1,0,0,1,.68.2c-.05,1.72-.08,3.3-.1,4.76s0,2.94,0,4.42v14.72a28.1,28.1,0,0,0,.21,4.25,1.63,1.63,0,0,0,1.35,1.42l2,.4c.5.09.75.5.75,1.22,0,.22,0,.44,0,.64S817.41,493.21,817.37,493.44Zm-2.9-44.35a5.62,5.62,0,0,1-1.69,4.16,6.19,6.19,0,0,1-4.52,1.65,6.6,6.6,0,0,1-4.56-1.59,5.28,5.28,0,0,1-1.79-4.15,5.64,5.64,0,0,1,1.72-4.18,6.13,6.13,0,0,1,4.49-1.69,6.5,6.5,0,0,1,4.59,1.62A5.44,5.44,0,0,1,814.47,449.09Z"/><path class="cls-2" d="M861,493.44c-1.44-.05-3-.09-4.69-.13s-3.27-.07-4.76-.07-3,0-4.69.07-3.25.08-4.55.13c0-.23-.08-.44-.11-.64s0-.42,0-.64a1.57,1.57,0,0,1,.17-.85,1.14,1.14,0,0,1,.64-.37l1.55-.33a2.09,2.09,0,0,0,.91-.41,1.59,1.59,0,0,0,.44-.91,9.83,9.83,0,0,0,.17-1.69q0-1.05,0-2.73V474.34a23.42,23.42,0,0,0-.13-2.53,3.83,3.83,0,0,0-1.08-2.26,5.64,5.64,0,0,0-4.52-1.89A7.31,7.31,0,0,0,838,468a11.2,11.2,0,0,0-1.72.75,1.26,1.26,0,0,0-.68.64,5.09,5.09,0,0,0-.13,1.45v14q0,1.68,0,2.73a9.83,9.83,0,0,0,.17,1.69,1.65,1.65,0,0,0,.44.91,2.09,2.09,0,0,0,.91.41l1.55.33a1.18,1.18,0,0,1,.65.37,1.69,1.69,0,0,1,.16.85c0,.22,0,.44,0,.64s-.06.41-.1.64c-1.31-.05-2.81-.09-4.53-.13s-3.28-.07-4.72-.07-3.07,0-4.76.07l-4.76.13c0-.23-.07-.44-.1-.64s0-.42,0-.64a1.89,1.89,0,0,1,.13-.85,1,1,0,0,1,.68-.37l2-.4a1.63,1.63,0,0,0,1.35-1.42,28.1,28.1,0,0,0,.21-4.25V470.29a5.41,5.41,0,0,0-.17-1.62,1.59,1.59,0,0,0-.78-.81l-2.29-1.29a5,5,0,0,1-.61-.47c-.09-.09-.14-.35-.14-.81a5.89,5.89,0,0,1,.14-1.08c.9-.09,1.92-.23,3.07-.43a35.31,35.31,0,0,0,4.08-1,40.33,40.33,0,0,0,3.85-1.28,7.71,7.71,0,0,1,2.63-.68c.36,0,.59.07.68.2l-.14,4.53a.92.92,0,0,0,.61.13,26.48,26.48,0,0,1,5-3.14,14,14,0,0,1,6.11-1.25,13.7,13.7,0,0,1,4.18.61,9.48,9.48,0,0,1,3.45,2,6.44,6.44,0,0,1,1.45,2,9.58,9.58,0,0,1,.71,2.16,14.4,14.4,0,0,1,.23,2.16c0,.72,0,1.38,0,2v12.76a28.51,28.51,0,0,0,.2,4.25,1.63,1.63,0,0,0,1.35,1.42l2,.4c.5.09.74.5.74,1.22,0,.22,0,.44,0,.64S861,493.21,861,493.44Z"/><path class="cls-2" d="M898.16,497.15a12.21,12.21,0,0,1-1.28,5.3,14.21,14.21,0,0,1-3.85,4.79,19.75,19.75,0,0,1-6.55,3.44,29.58,29.58,0,0,1-9.31,1.32,28.61,28.61,0,0,1-4.32-.37,19,19,0,0,1-4.55-1.28,10.46,10.46,0,0,1-3.58-2.47,5.48,5.48,0,0,1-1.45-3.91,5,5,0,0,1,1.75-4.05,18.07,18.07,0,0,1,4.93-2.77l.1-.2a.47.47,0,0,0,0-.27,8.23,8.23,0,0,1-4.09-3,7.44,7.44,0,0,1-1.25-4.19,13,13,0,0,1,.14-1.72,5,5,0,0,1,.4-1.51l1.22-.88,1.55-1.15,1.59-1.18c.51-.38,1-.71,1.38-1a12.17,12.17,0,0,1-4.25-3.68,9.66,9.66,0,0,1-1.69-5.84,10.85,10.85,0,0,1,1-4.65,10.06,10.06,0,0,1,2.8-3.58,13.18,13.18,0,0,1,4.39-2.3,18.76,18.76,0,0,1,5.67-.81,17.27,17.27,0,0,1,7.83,1.76l10-.54a.73.73,0,0,1,.48.67,13.85,13.85,0,0,1,.07,1.49c0,.63,0,1.16-.07,1.58s-.21.69-.48.78l-5-.34a.78.78,0,0,0-.4.48,11.83,11.83,0,0,1,1.18,2.39,9.32,9.32,0,0,1,.5,3.14,10.78,10.78,0,0,1-1,4.66,10.36,10.36,0,0,1-2.76,3.58,13,13,0,0,1-4.36,2.29,19,19,0,0,1-5.73.81c-.86,0-1.69,0-2.5-.1a8.42,8.42,0,0,1-2.16-.44,1.1,1.1,0,0,0-.71.07,5.86,5.86,0,0,0-.78.6,2.63,2.63,0,0,0-.94,2,2.15,2.15,0,0,0,1,1.86,5.32,5.32,0,0,0,3,.71c1.93,0,3.79,0,5.57-.1s3.65-.11,5.63-.11a17.78,17.78,0,0,1,4.25.48,9.12,9.12,0,0,1,3.41,1.55,7.71,7.71,0,0,1,2.3,2.73A8.62,8.62,0,0,1,898.16,497.15Zm-9.51,5.13a3.68,3.68,0,0,0-1.49-3.17,5.81,5.81,0,0,0-3.51-1.08h-8.91a2,2,0,0,0-1.82.81,3.47,3.47,0,0,0-.71,1.38,5.76,5.76,0,0,0-.23,1.59,4.63,4.63,0,0,0,.7,2.53,6.66,6.66,0,0,0,1.93,1.92,9,9,0,0,0,2.8,1.22,13.69,13.69,0,0,0,3.41.4q4.11,0,6-1.65A5.11,5.11,0,0,0,888.65,502.28Zm-5.94-29.5a27.19,27.19,0,0,0-.17-3.07,9.41,9.41,0,0,0-.64-2.56,5.06,5.06,0,0,0-1.22-1.79,2.7,2.7,0,0,0-1.89-.67,2.62,2.62,0,0,0-1.89.64,4.18,4.18,0,0,0-1,1.68,9.41,9.41,0,0,0-.48,2.47c-.07.94-.1,1.93-.1,3a28,28,0,0,0,.17,3.1,9.43,9.43,0,0,0,.64,2.6,4.76,4.76,0,0,0,1.22,1.76,2.81,2.81,0,0,0,1.89.64,2.87,2.87,0,0,0,1.92-.61,3.56,3.56,0,0,0,1-1.69,10.37,10.37,0,0,0,.44-2.49C882.67,474.81,882.71,473.82,882.71,472.78Z"/><path class="cls-2" d="M970.18,487.3a5.76,5.76,0,0,1,.91.74,1.53,1.53,0,0,1,.57,1.08,1.7,1.7,0,0,1-.61,1.15c-.72.67-1.55,1.37-2.49,2.09a18.79,18.79,0,0,1-3.14,1.92,21.23,21.23,0,0,1-3.71,1.39,15.57,15.57,0,0,1-4.09.54,13.41,13.41,0,0,1-4.25-.64,12.8,12.8,0,0,1-3.41-1.76,17.42,17.42,0,0,1-2.76-2.53,36.93,36.93,0,0,1-2.4-3,1.56,1.56,0,0,0-.61,0,21.14,21.14,0,0,1-5.4,4.46,13.87,13.87,0,0,1-7.08,1.75,17,17,0,0,1-5.57-.91,15,15,0,0,1-4.73-2.6,12.85,12.85,0,0,1-3.31-4.15,12.31,12.31,0,0,1-1.24-5.63,10.6,10.6,0,0,1,.74-4.06,11.47,11.47,0,0,1,2-3.27,14.2,14.2,0,0,1,3-2.53,24.89,24.89,0,0,1,3.58-1.89,1.23,1.23,0,0,0,0-.54,18.15,18.15,0,0,1-2.77-3.58,9.67,9.67,0,0,1-1.21-5.06,10.26,10.26,0,0,1,.84-4.15,9.27,9.27,0,0,1,2.47-3.34,12,12,0,0,1,4-2.26,16.55,16.55,0,0,1,5.57-.85,21.79,21.79,0,0,1,4.08.41,14.6,14.6,0,0,1,3.92,1.32,8.18,8.18,0,0,1,2.94,2.46,6.34,6.34,0,0,1,1.14,3.85,6.14,6.14,0,0,1-2.16,4.89,14.26,14.26,0,0,1-5.4,2.8,1.23,1.23,0,0,0,0,.54q1.89,1.56,3.51,3t3.31,3.21l2.09,2.46a19,19,0,0,1,1.42,1.86.72.72,0,0,0,.61,0c.49-.72,1.06-1.6,1.72-2.63s1.34-2.14,2.06-3.31a32.3,32.3,0,0,0,1.58-2.87,5.91,5.91,0,0,0,.71-2.46,1.38,1.38,0,0,0-.5-1.18,3,3,0,0,0-1.32-.51l-2-.34a1,1,0,0,1-.67-.4,2.07,2.07,0,0,1-.14-.88,3.91,3.91,0,0,1,0-.61,5.75,5.75,0,0,1,.1-.6l4.59.13c1.39.05,2.88.07,4.45.07s3.17,0,4.63-.07l4.55-.13a5.75,5.75,0,0,1,.1.6,3.91,3.91,0,0,1,0,.61c0,.81-.25,1.24-.74,1.28l-2.91.34a9.57,9.57,0,0,0-2.39.74,7.29,7.29,0,0,0-2.53,2.43q-2.29,3.11-4.29,6.14c-1.33,2-2.82,4.28-4.49,6.75a.72.72,0,0,0,0,.61c.72.95,1.51,2,2.36,3s1.76,2.18,2.7,3.31A12,12,0,0,0,961,489a6.58,6.58,0,0,0,3.58,1,5.87,5.87,0,0,0,2.93-.78A15.18,15.18,0,0,0,970.18,487.3Zm-33.75.47a8.1,8.1,0,0,0,3.24-.61,8.88,8.88,0,0,0,2.63-1.75,1.09,1.09,0,0,0,.07-.61c-.67-.9-1.35-1.79-2-2.67s-1.48-1.83-2.42-2.86a47.83,47.83,0,0,0-4.16-3.95l-4.42-3.75a.47.47,0,0,0-.33.13,5,5,0,0,0-1.49,2.13A8.58,8.58,0,0,0,927,477a11.35,11.35,0,0,0,2.63,7.86A8.74,8.74,0,0,0,936.43,487.77Zm1.89-30.31a6.23,6.23,0,0,0-.84-3.44,2.91,2.91,0,0,0-2.6-1.28,3.32,3.32,0,0,0-2.57,1,3.93,3.93,0,0,0-.94,2.74,6,6,0,0,0,1.48,4,19.46,19.46,0,0,0,3.24,3,.46.46,0,0,0,.48,0,7.24,7.24,0,0,0,1.31-2.7A13,13,0,0,0,938.32,457.46Z"/><path class="cls-2" d="M1022.69,493.44l-5.43-.13c-1.92-.05-3.68-.07-5.3-.07s-3.48,0-5.44.07l-5.56.13a5.59,5.59,0,0,1-.1-.64,4.4,4.4,0,0,1,0-.64,2.33,2.33,0,0,1,.14-1,1,1,0,0,1,.67-.4l2.43-.41a1.57,1.57,0,0,0,1-.44,2,2,0,0,0,.51-1.08,13.4,13.4,0,0,0,.16-1.85c0-.77,0-1.74,0-2.91v-26a43.06,43.06,0,0,0-.17-4.59,3.74,3.74,0,0,0-.51-1.76h-3.24a32.4,32.4,0,0,0-3.64.17,6.14,6.14,0,0,0-2.3.68,3.73,3.73,0,0,0-1.38,1.38,8.53,8.53,0,0,0-.84,2.23l-.48,1.82a1.05,1.05,0,0,1-.43.71,2.18,2.18,0,0,1-1,.17,7.32,7.32,0,0,1-.81,0,5.45,5.45,0,0,1-.75-.1q.07-.94.21-2.73c.09-1.19.17-2.43.23-3.71s.14-2.5.2-3.65.13-2,.17-2.6a3.29,3.29,0,0,1,1-.13c.22,0,.43,0,.64,0a.55.55,0,0,1,.44.37c.22.77.51,1.17.87,1.22s1.46.08,3,.1,3.33,0,5.27,0h19c2,0,3.76,0,5.33,0s2.59-.06,3-.1.65-.45.88-1.22a.55.55,0,0,1,.44-.37,6.4,6.4,0,0,1,.64,0,3.26,3.26,0,0,1,1,.13c.05.59.09,1.45.14,2.6s.1,2.36.16,3.65.14,2.52.21,3.71.12,2.1.17,2.73a5.45,5.45,0,0,1-.75.1,7.32,7.32,0,0,1-.81,0,2.1,2.1,0,0,1-1-.17,1,1,0,0,1-.44-.71l-.41-1.82a8.83,8.83,0,0,0-.81-2.26,3.33,3.33,0,0,0-1.38-1.35,6.48,6.48,0,0,0-2.33-.68,31.86,31.86,0,0,0-3.58-.17h-3.17a3.91,3.91,0,0,0-.54,1.76,36.53,36.53,0,0,0-.2,4.59v26a33.09,33.09,0,0,0,.23,4.8,1.69,1.69,0,0,0,1.52,1.48l2.43.41q.81.19.81,1.35a2.67,2.67,0,0,1-.07.64C1022.78,493,1022.73,493.21,1022.69,493.44Z"/><path class="cls-2" d="M1075.94,493.44c-1.43-.05-3-.09-4.65-.13s-3.22-.07-4.66-.07-3,0-4.72.07-3.22.08-4.53.13c0-.23-.07-.44-.1-.64s0-.42,0-.64a1.57,1.57,0,0,1,.17-.85,1.11,1.11,0,0,1,.64-.37l1.42-.33a2.14,2.14,0,0,0,.91-.41,1.65,1.65,0,0,0,.44-.91,11,11,0,0,0,.17-1.69q0-1.05,0-2.73V474.34a19.2,19.2,0,0,0-.17-2.53,4.46,4.46,0,0,0-1-2.26,5.09,5.09,0,0,0-4.25-1.89,6.39,6.39,0,0,0-2.19.33,9.85,9.85,0,0,0-1.59.75,1.41,1.41,0,0,0-.64.64,4.13,4.13,0,0,0-.17,1.45v14q0,1.68,0,2.73a11,11,0,0,0,.17,1.69,1.65,1.65,0,0,0,.44.91,2.14,2.14,0,0,0,.91.41l1.42.33a1.14,1.14,0,0,1,.64.37,1.57,1.57,0,0,1,.17.85c0,.22,0,.44,0,.64s-.06.41-.1.64c-1.31-.05-2.82-.09-4.53-.13s-3.26-.07-4.66-.07-3.06,0-4.72.07l-4.72.13c0-.23-.08-.44-.11-.64s0-.42,0-.64a1.86,1.86,0,0,1,.14-.85c.08-.16.31-.28.67-.37l2-.4a1.63,1.63,0,0,0,1.34-1.42,28.1,28.1,0,0,0,.21-4.25V454.22a16.93,16.93,0,0,0-.21-3.34,2.21,2.21,0,0,0-1.07-1.38l-2-1.08a5,5,0,0,1-.61-.47c-.09-.09-.13-.34-.13-.75a5.92,5.92,0,0,1,.13-1.14c.9-.09,1.93-.23,3.07-.41a35,35,0,0,0,4.29-1,40.16,40.16,0,0,0,3.88-1.28,8.15,8.15,0,0,1,2.8-.68,1,1,0,0,1,.68.2c0,1.72-.08,3.3-.11,4.76s0,2.94,0,4.43v13.29a.78.78,0,0,0,.54.14,26.94,26.94,0,0,1,4.72-3.08,12.69,12.69,0,0,1,5.67-1.18,13,13,0,0,1,4,.61,9.49,9.49,0,0,1,3.41,2,6.61,6.61,0,0,1,1.35,2,9.94,9.94,0,0,1,.67,2.2,13.73,13.73,0,0,1,.24,2.16q0,1.05,0,1.92v12.76a28.1,28.1,0,0,0,.21,4.25,1.63,1.63,0,0,0,1.35,1.42l2,.4a1,1,0,0,1,.67.37,1.73,1.73,0,0,1,.14.85c0,.22,0,.44,0,.64S1076,493.21,1075.94,493.44Z"/><path class="cls-2" d="M1106,485.61l.47.34a3.92,3.92,0,0,1,.47.4,2.42,2.42,0,0,1,.48.95c0,.27-.23.7-.81,1.28a18.72,18.72,0,0,1-5.67,4.35,15.53,15.53,0,0,1-7,1.52,15.28,15.28,0,0,1-6.34-1.28,14.58,14.58,0,0,1-4.86-3.54,16.33,16.33,0,0,1-3.14-5.27,18.44,18.44,0,0,1-1.11-6.45,18.16,18.16,0,0,1,1.18-6.58,15.41,15.41,0,0,1,8.47-8.8,16.26,16.26,0,0,1,6.55-1.29,14.1,14.1,0,0,1,9.38,3.07q3.65,3.07,3.78,9.22a2.29,2.29,0,0,1-.17.74,1.64,1.64,0,0,1-.44.47h-19a.63.63,0,0,0-.34.41,2.51,2.51,0,0,1,0,.4,4.38,4.38,0,0,0,0,.47,10.84,10.84,0,0,0,.88,4.26,12.56,12.56,0,0,0,2.46,3.78,12.84,12.84,0,0,0,3.75,2.73,10.64,10.64,0,0,0,4.72,1,8.76,8.76,0,0,0,3.34-.65A14.29,14.29,0,0,0,1106,485.61Zm-12.55-21.06c-2.89,0-4.59,2.16-5.13,6.48a.79.79,0,0,0,.26.41l8.64-.14a1.14,1.14,0,0,0,.34-.61,8.5,8.5,0,0,0-.77-4.32A3.4,3.4,0,0,0,1093.43,464.55Z"/><path class="cls-2" d="M1131.15,493.44c-.76,0-1.63,0-2.6,0l-3-.06-3-.07-2.52,0c-1.49,0-3.12,0-4.9.07s-3.41.08-4.89.13a5.59,5.59,0,0,1-.1-.64,4.4,4.4,0,0,1,0-.64,1.86,1.86,0,0,1,.14-.85,1,1,0,0,1,.67-.37l2.1-.4a1.54,1.54,0,0,0,1.34-1.39,28.67,28.67,0,0,0,.21-4.28V470.42a6.66,6.66,0,0,0-.14-1.62,1.44,1.44,0,0,0-.81-.81l-2.23-1.28a4.85,4.85,0,0,1-.67-.47,1.22,1.22,0,0,1-.14-.74,6,6,0,0,1,.14-1.15c.9-.14,1.9-.29,3-.48a27.64,27.64,0,0,0,4-1,28.2,28.2,0,0,0,3.64-1.38,6.15,6.15,0,0,1,2.5-.71,1,1,0,0,1,.68.2l.13,4.73a.92.92,0,0,0,.61.13,40.89,40.89,0,0,1,4.49-3.27,9.43,9.43,0,0,1,5.09-1.32,5.3,5.3,0,0,1,3,.85,3,3,0,0,1,1.25,2.66,8.75,8.75,0,0,1-.34,2.2,11.45,11.45,0,0,1-.95,2.39,7.58,7.58,0,0,1-1.41,1.93,2.53,2.53,0,0,1-1.76.77,2.89,2.89,0,0,1-1.75-.54,17.58,17.58,0,0,1-1.49-1.21,17.66,17.66,0,0,0-1.48-1.22,2.92,2.92,0,0,0-1.76-.54,2.26,2.26,0,0,0-1.25.34,7.73,7.73,0,0,0-1,.88,1.4,1.4,0,0,0-.54.91,7.68,7.68,0,0,0-.07,1.11v13.1a20.19,20.19,0,0,0,.3,4.28,1.61,1.61,0,0,0,1.45,1.32l3.38.47c.36.05.58.16.67.34a2.07,2.07,0,0,1,.14.88,4.4,4.4,0,0,1,0,.64A5.59,5.59,0,0,1,1131.15,493.44Z"/><path class="cls-2" d="M1168.34,484.4a10.53,10.53,0,0,0,.51,3.71,2,2,0,0,0,2,1.28,2.53,2.53,0,0,0,.91-.17,2.43,2.43,0,0,1,.85-.17c.49,0,.74.34.74,1,0,.23,0,.51,0,.85s0,.55,0,.64a20.88,20.88,0,0,1-2,.84c-.76.3-1.57.58-2.43.85a21.77,21.77,0,0,1-2.56.64,12.86,12.86,0,0,1-2.36.23,7.58,7.58,0,0,1-2.33-.3,4.23,4.23,0,0,1-1.49-.81,4.7,4.7,0,0,1-.94-1.15l-.78-1.31a1.3,1.3,0,0,0-.54-.07,16.24,16.24,0,0,1-4.52,3.07,12.53,12.53,0,0,1-4.93.91,7.75,7.75,0,0,1-5.73-2.16,7.29,7.29,0,0,1-2.16-5.4,9.88,9.88,0,0,1,.33-2.7,5.46,5.46,0,0,1,1.15-2.06,8.57,8.57,0,0,1,2.16-1.68,22.21,22.21,0,0,1,3.31-1.52c.72-.27,1.52-.54,2.39-.81l2.64-.81,2.56-.78,2.19-.64a1.93,1.93,0,0,0,.41-.54v-3.58a4.86,4.86,0,0,0-1.55-4,5.3,5.3,0,0,0-3.38-1.25,4.38,4.38,0,0,0-2.83.74,2.75,2.75,0,0,0-.88,2.23,5.22,5.22,0,0,0,.07.94c0,.27.09.59.13.95a1.37,1.37,0,0,1-.27.54,9,9,0,0,1-2.29,1.21,7.78,7.78,0,0,1-2.77.54,2.73,2.73,0,0,1-1.55-.44,1.34,1.34,0,0,1-.68-1.18,7.44,7.44,0,0,1,.75-3.34,7.35,7.35,0,0,1,3-2.87,40.38,40.38,0,0,1,6.35-3.14,18.57,18.57,0,0,1,6.82-1.38,13,13,0,0,1,3.64.51,9.05,9.05,0,0,1,3.11,1.58,7.89,7.89,0,0,1,3,6.48Zm-10.66-5.34c-.58.18-1.16.37-1.72.58s-1.09.41-1.59.64a7.26,7.26,0,0,0-2.43,1.62,4.17,4.17,0,0,0-.88,2.9,4.31,4.31,0,0,0,1,2.9,3.17,3.17,0,0,0,2.53,1.15,5.24,5.24,0,0,0,1.22-.17,3.27,3.27,0,0,0,1.15-.51,1.37,1.37,0,0,0,.64-.67,3.39,3.39,0,0,0,.1-.95Z"/><path class="cls-2" d="M1212.76,476.63a18.75,18.75,0,0,1-1.18,6.72,15.81,15.81,0,0,1-3.31,5.3,15,15,0,0,1-5.13,3.47,17,17,0,0,1-6.65,1.25,24.54,24.54,0,0,1-3-.17,23.26,23.26,0,0,1-2.7-.5l-.41.2a1.34,1.34,0,0,0-.33.27v9.25a22.46,22.46,0,0,0,.27,4.28,1.54,1.54,0,0,0,1.42,1.32l3.3.47a.81.81,0,0,1,.68.34,2.1,2.1,0,0,1,.13.88c0,.22,0,.43,0,.64s-.06.41-.1.64c-.72,0-1.55,0-2.5,0l-2.93-.06-3-.07-2.53,0q-2.22,0-4.86.06l-4.85.14c0-.23-.08-.44-.11-.64s0-.42,0-.64a1.73,1.73,0,0,1,.14-.85c.08-.16.31-.28.67-.37l2-.4a1.64,1.64,0,0,0,1.34-1.42,28.1,28.1,0,0,0,.21-4.25V470.29a5.41,5.41,0,0,0-.17-1.62,1.59,1.59,0,0,0-.78-.81l-2.29-1.29a5,5,0,0,1-.61-.47c-.09-.09-.14-.35-.14-.81a5.89,5.89,0,0,1,.14-1.08c.9-.09,1.92-.23,3.07-.43a35.31,35.31,0,0,0,4.08-1,39.41,39.41,0,0,0,3.85-1.28,7.71,7.71,0,0,1,2.63-.68c.36,0,.59.07.68.2l-.14,4.53a.92.92,0,0,0,.61.13c.77-.58,1.52-1.15,2.26-1.69a18.3,18.3,0,0,1,2.26-1.41,11.16,11.16,0,0,1,2.5-.95,12.79,12.79,0,0,1,3-.34,11.74,11.74,0,0,1,5.06,1.08,11,11,0,0,1,3.92,3.11,15.33,15.33,0,0,1,2.53,4.86A20.87,20.87,0,0,1,1212.76,476.63Zm-11.27,1.69c0-3.42-.66-6.05-2-7.9a5.91,5.91,0,0,0-5-2.76,6.61,6.61,0,0,0-2.06.3,4.88,4.88,0,0,0-1.51.78,1.63,1.63,0,0,0-.68.64,3.55,3.55,0,0,0-.2,1.45V484.4a4.41,4.41,0,0,0,1.45,3.5,5,5,0,0,0,3.41,1.29,5.23,5.23,0,0,0,5-3A17.58,17.58,0,0,0,1201.49,478.32Z"/><path class="cls-2" d="M1229.9,506.91a14.28,14.28,0,0,1-1.62,2.7,7.11,7.11,0,0,1-2,1.75,5.09,5.09,0,0,1-2.6.64,4.84,4.84,0,0,1-5-5,5.35,5.35,0,0,1,1.14-3.41,3.9,3.9,0,0,1,3.24-1.45,3.46,3.46,0,0,1,1.46.27,3,3,0,0,0,1.31.27,1.64,1.64,0,0,0,1.42-.88,13.71,13.71,0,0,0,1-2l1.75-4.38c-.31-.77-.8-1.92-1.48-3.45s-1.35-3-2-4.45l-8-16.61-1.25-2.63a16.48,16.48,0,0,0-.94-1.78,3.61,3.61,0,0,0-.91-1.05,2.91,2.91,0,0,0-1.08-.47l-.68-.14c-.49-.13-.74-.56-.74-1.28a6.4,6.4,0,0,1,0-.64c0-.21.06-.42.1-.64l4.86.13c1.8.05,3.42.07,4.86.07s3.14,0,5-.07l4.9-.13c0,.22.08.43.1.64a6.4,6.4,0,0,1,0,.64,1.54,1.54,0,0,1-.16.84,1.18,1.18,0,0,1-.65.37l-1.68.41a1.51,1.51,0,0,0-1.25,1.48,10.22,10.22,0,0,0,1.25,4.19l4.85,11.4h.21l3.1-8.9c.14-.36.3-.83.47-1.39l.58-1.72c.2-.58.37-1.15.51-1.69a6,6,0,0,0,.2-1.35,1.92,1.92,0,0,0-1.69-2.09l-1.35-.34c-.5-.09-.74-.49-.74-1.21a6.4,6.4,0,0,1,0-.64c0-.21.06-.42.1-.64q3.24.19,6.62.2c1.08,0,2.16,0,3.24-.07l3.24-.13c0,.22.07.43.1.64a6.4,6.4,0,0,1,0,.64c0,.72-.25,1.15-.74,1.28l-.68.14a3.82,3.82,0,0,0-1.11.43,3.49,3.49,0,0,0-1,1,12.77,12.77,0,0,0-1,1.76q-.49,1.08-1.11,2.76l-12.82,32.54C1230.89,504.69,1230.39,505.85,1229.9,506.91Z"/><path class="cls-2" d="M1300.84,478.86a13.66,13.66,0,0,1-1.59,6.68,14.89,14.89,0,0,1-4.19,4.86,19,19,0,0,1-6,3,23.49,23.49,0,0,1-7,1.05,48.57,48.57,0,0,1-6.78-.44,22.35,22.35,0,0,1-5.37-1.38,3.05,3.05,0,0,1-.54-.54c0-.81-.1-1.7-.17-2.67s-.14-1.95-.23-3-.19-2-.31-3-.23-1.85-.37-2.66a4,4,0,0,1,.78-.21,6.15,6.15,0,0,1,.84-.06,2,2,0,0,1,1,.17,1,1,0,0,1,.44.7,12.51,12.51,0,0,0,3.44,6.72c1.67,1.55,4,2.33,7.16,2.33a9.83,9.83,0,0,0,5.73-1.59,5.45,5.45,0,0,0,2.3-4.82,6.39,6.39,0,0,0-1.42-4.26,15.17,15.17,0,0,0-3.54-3,51.24,51.24,0,0,0-4.63-2.6,23.2,23.2,0,0,1-4.62-3,15.24,15.24,0,0,1-3.54-4.32,12.87,12.87,0,0,1-1.42-6.38,13.36,13.36,0,0,1,1.32-6.07,13,13,0,0,1,3.61-4.46,16.22,16.22,0,0,1,5.4-2.76,22.8,22.8,0,0,1,6.68-.95,46.81,46.81,0,0,1,5.67.31,21.39,21.39,0,0,1,4.18.84,1.07,1.07,0,0,1,.48.54c.08,1.58.21,3.12.37,4.62s.3,3.12.44,4.83a3.42,3.42,0,0,1-1.49.27,2.38,2.38,0,0,1-1-.14.92.92,0,0,1-.44-.67q-1-3.92-3-5.47a8.35,8.35,0,0,0-5.2-1.55,6.77,6.77,0,0,0-5.06,1.72,6.12,6.12,0,0,0-1.69,4.49,5.42,5.42,0,0,0,1.45,3.85,16.3,16.3,0,0,0,3.68,2.86q2.22,1.32,4.76,2.64a28.58,28.58,0,0,1,4.76,3.1,15.29,15.29,0,0,1,3.67,4.29A12,12,0,0,1,1300.84,478.86Z"/><path class="cls-2" d="M1331.88,485.61c.14.09.3.2.48.34a4.9,4.9,0,0,1,.47.4,2.25,2.25,0,0,1,.47.95c0,.27-.22.7-.81,1.28a18.72,18.72,0,0,1-5.67,4.35,15.52,15.52,0,0,1-7,1.52,15.25,15.25,0,0,1-6.34-1.28,14.58,14.58,0,0,1-4.86-3.54,16.33,16.33,0,0,1-3.14-5.27,18.44,18.44,0,0,1-1.11-6.45,18.16,18.16,0,0,1,1.18-6.58,15.41,15.41,0,0,1,8.47-8.8,16.24,16.24,0,0,1,6.54-1.29,14.13,14.13,0,0,1,9.39,3.07q3.64,3.07,3.77,9.22a2.68,2.68,0,0,1-.16.74,1.8,1.8,0,0,1-.44.47h-19a.66.66,0,0,0-.34.41,3.94,3.94,0,0,1,0,.4,4.38,4.38,0,0,0,0,.47,11,11,0,0,0,.87,4.26,12.72,12.72,0,0,0,6.21,6.51,10.68,10.68,0,0,0,4.73,1,8.79,8.79,0,0,0,3.34-.65A14.21,14.21,0,0,0,1331.88,485.61Zm-12.55-21.06q-4.32,0-5.13,6.48a.79.79,0,0,0,.27.41l8.64-.14a1.2,1.2,0,0,0,.34-.61,8.5,8.5,0,0,0-.78-4.32A3.4,3.4,0,0,0,1319.33,464.55Z"/><path class="cls-2" d="M1357.06,493.44c-.77,0-1.63,0-2.6,0l-3-.06-3-.07-2.53,0c-1.49,0-3.12,0-4.89.07s-3.41.08-4.9.13c0-.23-.08-.44-.1-.64s0-.42,0-.64a1.89,1.89,0,0,1,.13-.85,1,1,0,0,1,.68-.37l2.09-.4a1.56,1.56,0,0,0,1.35-1.39,29.09,29.09,0,0,0,.2-4.28V470.42a6.79,6.79,0,0,0-.13-1.62,1.44,1.44,0,0,0-.81-.81l-2.23-1.28a5.2,5.2,0,0,1-.68-.47,1.24,1.24,0,0,1-.13-.74,5.93,5.93,0,0,1,.13-1.15c.91-.14,1.91-.29,3-.48a27.55,27.55,0,0,0,4-1,28.39,28.39,0,0,0,3.65-1.38,6.11,6.11,0,0,1,2.5-.71.94.94,0,0,1,.67.2l.14,4.73a.92.92,0,0,0,.61.13,41.81,41.81,0,0,1,4.48-3.27,9.49,9.49,0,0,1,5.1-1.32,5.24,5.24,0,0,1,3,.85,3,3,0,0,1,1.25,2.66,8.32,8.32,0,0,1-.34,2.2,11.42,11.42,0,0,1-.94,2.39,7.6,7.6,0,0,1-1.42,1.93,2.51,2.51,0,0,1-1.75.77,2.92,2.92,0,0,1-1.76-.54,16,16,0,0,1-1.48-1.21,17.76,17.76,0,0,0-1.49-1.22,2.89,2.89,0,0,0-1.75-.54,2.24,2.24,0,0,0-1.25.34,7.2,7.2,0,0,0-1.05.88,1.44,1.44,0,0,0-.54.91,9.53,9.53,0,0,0-.06,1.11v13.1a20.19,20.19,0,0,0,.3,4.28,1.59,1.59,0,0,0,1.45,1.32l3.37.47c.36.05.59.16.68.34a2.1,2.1,0,0,1,.13.88c0,.22,0,.44,0,.64S1357.1,493.21,1357.06,493.44Z"/><path class="cls-2" d="M1388,494.18a5.05,5.05,0,0,1-1.35.24c-.72.07-1.49.1-2.3.1s-1.56,0-2.26-.1a4.91,4.91,0,0,1-1.31-.24c-.14-.45-.33-1-.58-1.75s-.5-1.46-.77-2.23-.56-1.53-.85-2.3-.57-1.46-.84-2.09l-6.14-14.92c-.45-1.07-.84-2-1.15-2.7a10.63,10.63,0,0,0-.94-1.75,4.25,4.25,0,0,0-1-1,2.85,2.85,0,0,0-1.15-.47l-.61-.14c-.53-.13-.8-.56-.8-1.28a4.36,4.36,0,0,1,0-.64,5,5,0,0,1,.1-.64l4.86.13c1.8.05,3.44.07,4.93.07s3.12,0,4.92-.07l4.86-.13c0,.22.08.43.11.64a6.4,6.4,0,0,1,0,.64,1.53,1.53,0,0,1-.17.84,1.14,1.14,0,0,1-.64.37l-1.69.41a1.33,1.33,0,0,0-1.15,1.41,15.51,15.51,0,0,0,1.15,4.26l4.39,12.15h.2l3.65-9.65c.13-.32.29-.76.47-1.32s.36-1.14.54-1.72.33-1.16.47-1.72a5.91,5.91,0,0,0,.2-1.39,1.86,1.86,0,0,0-1.68-2.09l-1.29-.34a1.14,1.14,0,0,1-.64-.37,1.53,1.53,0,0,1-.17-.84,4.31,4.31,0,0,1,0-.64,5,5,0,0,1,.1-.64q3.24.19,6.61.2c1.08,0,2.16,0,3.24-.07l3.31-.13a5,5,0,0,1,.1.64,6.28,6.28,0,0,1,0,.64c0,.72-.28,1.15-.81,1.28l-.61.14a2.85,2.85,0,0,0-1.15.47,4,4,0,0,0-.94,1,11.27,11.27,0,0,0-1,1.75c-.34.73-.73,1.63-1.19,2.7l-6.2,14.92c-.59,1.4-1.17,2.9-1.76,4.49S1388.31,493.19,1388,494.18Z"/><path class="cls-2" d="M1423.27,493.44c-1.44-.05-3-.09-4.72-.13s-3.29-.07-4.73-.07-3.1,0-4.86.07-3.37.08-4.86.13c0-.23-.08-.44-.1-.64s0-.42,0-.64a1.89,1.89,0,0,1,.13-.85,1,1,0,0,1,.68-.37l2-.4a1.63,1.63,0,0,0,1.35-1.42,28.1,28.1,0,0,0,.21-4.25V471.7c0-.71,0-1.3,0-1.75a4.07,4.07,0,0,0-.17-1.08,2.4,2.4,0,0,0-.34-.68,2.5,2.5,0,0,0-.6-.53l-2.1-1.15a7.12,7.12,0,0,1-.6-.47,1.24,1.24,0,0,1-.14-.75,6,6,0,0,1,.14-1.14c.9-.09,1.92-.23,3.07-.41a36.86,36.86,0,0,0,4.28-1c1.44-.41,2.74-.83,3.89-1.28a8.1,8.1,0,0,1,2.8-.68.94.94,0,0,1,.67.2c0,1.72-.08,3.3-.1,4.76s0,2.94,0,4.42v14.72a28.51,28.51,0,0,0,.2,4.25,1.63,1.63,0,0,0,1.35,1.42l2,.4c.5.09.75.5.75,1.22,0,.22,0,.44,0,.64A5.59,5.59,0,0,1,1423.27,493.44Zm-2.9-44.35a5.58,5.58,0,0,1-1.69,4.16,6.18,6.18,0,0,1-4.52,1.65,6.6,6.6,0,0,1-4.56-1.59,5.28,5.28,0,0,1-1.79-4.15,5.61,5.61,0,0,1,1.73-4.18,6.09,6.09,0,0,1,4.48-1.69,6.5,6.5,0,0,1,4.59,1.62A5.44,5.44,0,0,1,1420.37,449.09Z"/><path class="cls-2" d="M1454.86,485.48a1.61,1.61,0,0,1,.61.91c0,.29-.18.75-.68,1.38a16.8,16.8,0,0,1-5.77,5,15.87,15.87,0,0,1-7.39,1.72,15.13,15.13,0,0,1-6.28-1.28,14.78,14.78,0,0,1-4.86-3.51,16,16,0,0,1-3.13-5.2,17.55,17.55,0,0,1-1.12-6.27,17.29,17.29,0,0,1,1.15-6.21,16.07,16.07,0,0,1,3.41-5.44,16.62,16.62,0,0,1,5.67-3.85,20.44,20.44,0,0,1,8-1.45,24.42,24.42,0,0,1,3.3.24,15.09,15.09,0,0,1,3.21.78,7.89,7.89,0,0,1,2.43,1.38,2.63,2.63,0,0,1,1,2.06,3.58,3.58,0,0,1-.34,1.45,6.9,6.9,0,0,1-.84,1.42,4.89,4.89,0,0,1-1.15,1,2.46,2.46,0,0,1-1.32.41,2.41,2.41,0,0,1-1.72-.68c-.47-.44-1-.95-1.52-1.52a9,9,0,0,0-2-1.51,5.91,5.91,0,0,0-3-.68A5.24,5.24,0,0,0,1438,468a10.93,10.93,0,0,0-1.65,6.31,16.59,16.59,0,0,0,.77,5.09,13.54,13.54,0,0,0,2.2,4.22,10.54,10.54,0,0,0,3.41,2.9,8.94,8.94,0,0,0,4.35,1.08,9.59,9.59,0,0,0,3.61-.74,9.34,9.34,0,0,0,3.21-2.09A9,9,0,0,1,1454.86,485.48Z"/><path class="cls-2" d="M1485.16,485.61c.14.09.3.2.48.34a4.9,4.9,0,0,1,.47.4,2.25,2.25,0,0,1,.47.95c.05.27-.22.7-.81,1.28a18.72,18.72,0,0,1-5.67,4.35,15.52,15.52,0,0,1-6.95,1.52,15.33,15.33,0,0,1-6.35-1.28,14.44,14.44,0,0,1-4.85-3.54,16.16,16.16,0,0,1-3.14-5.27,18.44,18.44,0,0,1-1.12-6.45,18.17,18.17,0,0,1,1.19-6.58,15.41,15.41,0,0,1,8.47-8.8,16.24,16.24,0,0,1,6.54-1.29,14.08,14.08,0,0,1,9.38,3.07c2.44,2.05,3.69,5.12,3.78,9.22a2.68,2.68,0,0,1-.16.74,1.8,1.8,0,0,1-.44.47h-19a.66.66,0,0,0-.34.41,3.94,3.94,0,0,1,0,.4,2.75,2.75,0,0,0,0,.47,11,11,0,0,0,.87,4.26,12.72,12.72,0,0,0,6.21,6.51,10.68,10.68,0,0,0,4.73,1,8.79,8.79,0,0,0,3.34-.65A14.21,14.21,0,0,0,1485.16,485.61Zm-12.55-21.06q-4.32,0-5.13,6.48a.79.79,0,0,0,.27.41l8.64-.14a1.2,1.2,0,0,0,.34-.61,8.5,8.5,0,0,0-.78-4.32A3.4,3.4,0,0,0,1472.61,464.55Z"/><path class="cls-2" d="M1513.58,483.31a9.77,9.77,0,0,1-1.18,4.86,10.59,10.59,0,0,1-3.14,3.48,14.44,14.44,0,0,1-4.52,2.09,20.06,20.06,0,0,1-5.34.71,25.22,25.22,0,0,1-4.76-.44,14.47,14.47,0,0,1-3.74-1.18c0-.4,0-1,0-1.85s0-1.69-.07-2.57,0-1.69-.07-2.43,0-1.27,0-1.58c.22,0,.43-.08.64-.11a6.4,6.4,0,0,1,.64,0,1.77,1.77,0,0,1,.88.17,1.11,1.11,0,0,1,.4.71,7.31,7.31,0,0,0,2.3,4.08,7,7,0,0,0,4.52,1.32,6,6,0,0,0,3.37-.88,3.52,3.52,0,0,0,.38-5.2,11.58,11.58,0,0,0-2.47-1.75c-1-.54-2.06-1.1-3.21-1.69a16.5,16.5,0,0,1-3.2-2.13,10.57,10.57,0,0,1-2.46-3,10.22,10.22,0,0,1,.1-8.94,9.59,9.59,0,0,1,2.83-3.17,12.73,12.73,0,0,1,4.09-1.9,18.13,18.13,0,0,1,4.75-.64,20.31,20.31,0,0,1,4.53.48,17.79,17.79,0,0,1,3.44,1.08c0,.49,0,1.07,0,1.75s0,1.36.07,2.06,0,1.35.07,2,0,1.07,0,1.38c-.22.05-.42.08-.57.1a3.33,3.33,0,0,1-.58,0,1.74,1.74,0,0,1-.91-.16,1.18,1.18,0,0,1-.37-.64q-1.08-4.12-6.14-4.12a4.56,4.56,0,0,0-3,.84,2.78,2.78,0,0,0-1,2.19,2.84,2.84,0,0,0,1,2.2,13.44,13.44,0,0,0,2.53,1.75c1,.57,2.11,1.14,3.31,1.73A17.1,17.1,0,0,1,1510,476a11.13,11.13,0,0,1,2.53,3A8.63,8.63,0,0,1,1513.58,483.31Z"/><path class="cls-2" d="M313.21,1.34a226.06,226.06,0,0,0-22.06,11.23c-21.6,13.07-61.24,30.6-74.42,32.93-12.86,2.27-21.18,1.93-29.22,1.62-9.13-.39-17.75-.73-32.55,2.74-17.24,4.06-26.5,10.82-33.27,15.75A69.16,69.16,0,0,1,115,70.13C108.59,73.79,100.2,79.53,83.5,91,76.66,95.68,72.07,98.93,55,111l-6.08,4.31c-3.22,2.29-6.11,4.33-8.73,6.17-8.68,6.11-14.42,10.16-19.43,14.22-28.14,22.87-20.5,33-17.62,36.8,9,11.87,26.43,2.63,36.87-2.9,1.1-.59,2.11-1.12,3-1.58,10.18-5.16,17.7-9.37,32.94-19.37,3.68-2.42,8.09-5.17,13.21-8.34,4.86-3,10.37-6.42,16.43-10.3-2.79-4-4.49-9.49-2.62-14.53,1.52-4.11,6.69-7.62,16.73-11.38,13.37-5,18.39-6.08,26.68-7.4a77.85,77.85,0,0,1,16.68-1c2.62.06,5.33.14,8.89,0,12.22-.54,13.47-.77,16.81-1.42,1.33-.25,3-.58,5.79-1,6.15-.93,13.66-3.23,27-13.73l2.42,3.06c-11.31,8.94-19.65,13.15-28.78,14.53-2.71.42-4.34.72-5.66,1-3.43.67-4.85.94-17.36,1.48-3.69.17-6.47.1-9.16,0a74.56,74.56,0,0,0-16,.94c-8,1.28-12.91,2.34-25.93,7.21-8.65,3.23-13.38,6.2-14.45,9.08-1.63,4.39.81,10,3.92,13,3.86,3.76,8.89,3.95,17.19,4.27l1,0c4.69.18,9.43.56,14,.93,5.77.46,11.74.94,17.6,1,19.72.29,21.44.44,31,1.3l1.81.16c10,.89,18.62,2.28,27,3.64,7.94,1.29,15.45,2.5,23,3,17.79,1.31,29.43-1.3,41.49-9.28,13.62-9,25-25.19,29.62-33.33l.1-.18c9.19-16.29,9.36-16.59,18.88-23.93l1.59-1.22C350.63,63,336.66-10.79,313.21,1.34Z"/><path class="cls-2" d="M28.34,482.61A223.26,223.26,0,0,0,50.4,471.38c21.6-13.06,61.24-30.6,74.42-32.92,12.86-2.28,21.18-1.93,29.22-1.62,9.12.38,17.75.72,32.55-2.75,17.24-4.06,26.49-10.81,33.26-15.74a66.86,66.86,0,0,1,6.67-4.52c6.44-3.66,14.82-9.4,31.53-20.86,6.84-4.7,11.42-7.94,28.48-20l6.09-4.31,8.73-6.16c8.67-6.11,14.42-10.16,19.43-14.22,28.14-22.88,20.5-33,17.62-36.81-9-11.87-26.43-2.63-36.87,2.91-1.1.59-2.11,1.11-3,1.57-10.18,5.17-17.7,9.38-32.94,19.38-3.68,2.42-8.09,5.16-13.21,8.33-4.86,3-10.37,6.43-16.43,10.31,2.79,4,4.48,9.49,2.62,14.52-1.53,4.12-6.69,7.63-16.73,11.38-13.37,5-18.39,6.09-26.69,7.4a78,78,0,0,1-16.68,1c-2.61-.07-5.32-.14-8.88,0-12.23.54-13.48.78-16.81,1.42-1.33.25-3,.58-5.79,1-6.15.94-13.67,3.24-27,13.74l-2.41-3.06c11.31-8.94,19.65-13.15,28.78-14.53,2.71-.42,4.34-.72,5.65-1,3.43-.67,4.85-.95,17.37-1.49,3.69-.17,6.46-.09,9.16,0a74.71,74.71,0,0,0,16-.95c8-1.27,12.9-2.34,25.93-7.2,8.65-3.23,13.38-6.2,14.44-9.08,1.63-4.39-.8-10-3.91-13-3.87-3.76-8.89-4-17.2-4.27l-1,0c-4.69-.19-9.44-.57-14-.94-5.77-.46-11.74-.93-17.6-1-19.72-.29-21.44-.45-31-1.3l-1.82-.16c-10-.89-18.61-2.29-27-3.64-7.93-1.29-15.44-2.5-23-3C80.64,338.35,69,341,57,348.93c-13.62,9-25,25.2-29.62,33.34l-.1.18C18,398.74,17.87,399,8.35,406.37L6.76,407.6C-9.08,420.94,4.89,494.75,28.34,482.61Z"/><rect class="cls-2" x="154.89" y="162.58" width="31.76" height="158.8"/><rect class="cls-2" x="154.89" y="162.58" width="31.76" height="158.8" transform="translate(412.75 71.2) rotate(90)"/><ellipse class="cls-3" cx="185.01" cy="500.42" rx="166.6" ry="11.58"/></g></g></svg>